<svg width="35" height="34" viewBox="0 0 35 34" fill="none" xmlns="http://www.w3.org/2000/svg">
<path d="M17.5 16.4469C15.1625 16.4469 13.25 15.7031 11.7625 14.2156C10.275 12.7281 9.53125 10.8156 9.53125 8.47812C9.53125 6.14062 10.275 4.22812 11.7625 2.74062C13.25 1.25312 15.1625 0.509369 17.5 0.509369C19.8375 0.509369 21.75 1.25312 23.2375 2.74062C24.725 4.22812 25.4688 6.14062 25.4688 8.47812C25.4688 10.8156 24.725 12.7281 23.2375 14.2156C21.75 15.7031 19.8375 16.4469 17.5 16.4469ZM0.5 33.5V28.5062C0.5 27.1604 0.836458 26.0094 1.50937 25.0531C2.18229 24.0969 3.05 23.3708 4.1125 22.875C6.48542 21.8125 8.76094 21.0156 10.9391 20.4844C13.1172 19.9531 15.3042 19.6875 17.5 19.6875C19.6958 19.6875 21.874 19.962 24.0344 20.5109C26.1948 21.0599 28.4601 21.8513 30.8302 22.8853C31.9388 23.3856 32.8275 24.111 33.4965 25.0616C34.1655 26.0122 34.5 27.1604 34.5 28.5062V33.5H0.5ZM3.6875 30.3125H31.3125V28.5062C31.3125 27.9396 31.1443 27.3995 30.8078 26.8859C30.4714 26.3724 30.0552 25.9917 29.5594 25.7437C27.2927 24.6458 25.2208 23.8932 23.3438 23.4859C21.4667 23.0786 19.5188 22.875 17.5 22.875C15.4813 22.875 13.5156 23.0786 11.6031 23.4859C9.69063 23.8932 7.61875 24.6458 5.3875 25.7437C4.89167 25.9917 4.48438 26.3724 4.16563 26.8859C3.84688 27.3995 3.6875 27.9396 3.6875 28.5062V30.3125ZM17.5 13.2594C18.8813 13.2594 20.0234 12.8078 20.9266 11.9047C21.8297 11.0016 22.2812 9.85937 22.2812 8.47812C22.2812 7.09687 21.8297 5.95468 20.9266 5.05156C20.0234 4.14843 18.8813 3.69687 17.5 3.69687C16.1188 3.69687 14.9766 4.14843 14.0734 5.05156C13.1703 5.95468 12.7188 7.09687 12.7188 8.47812C12.7188 9.85937 13.1703 11.0016 14.0734 11.9047C14.9766 12.8078 16.1188 13.2594 17.5 13.2594Z" fill="#284703"/>
</svg>
