<svg width="38" height="38" viewBox="0 0 38 38" fill="none" xmlns="http://www.w3.org/2000/svg">
<path d="M14.7834 37.3333L13.8667 31.5583C13.2862 31.3444 12.6751 31.0542 12.0334 30.6875C11.3917 30.3208 10.8265 29.9389 10.3376 29.5417L4.92925 32.0167L0.666748 24.5L5.61675 20.8792C5.55564 20.6042 5.51744 20.291 5.50216 19.9396C5.48689 19.5882 5.47925 19.275 5.47925 19C5.47925 18.725 5.48689 18.4118 5.50216 18.0604C5.51744 17.709 5.55564 17.3958 5.61675 17.1208L0.666748 13.5L4.92925 5.98332L10.3376 8.45832C10.8265 8.0611 11.3917 7.67916 12.0334 7.31249C12.6751 6.94582 13.2862 6.67082 13.8667 6.48749L14.7834 0.666656H23.2167L24.1334 6.44166C24.714 6.65555 25.3327 6.93818 25.9897 7.28957C26.6466 7.64096 27.2042 8.03054 27.6626 8.45832L33.0709 5.98332L37.3334 13.5L32.3834 17.0292C32.4445 17.3347 32.4827 17.6632 32.498 18.0146C32.5133 18.366 32.5209 18.6944 32.5209 19C32.5209 19.3055 32.5133 19.6264 32.498 19.9625C32.4827 20.2986 32.4445 20.6194 32.3834 20.925L37.3334 24.5L33.0709 32.0167L27.6626 29.5417C27.1737 29.9389 26.6161 30.3285 25.9897 30.7104C25.3633 31.0924 24.7445 31.375 24.1334 31.5583L23.2167 37.3333H14.7834ZM19.0001 24.9583C20.6501 24.9583 22.0556 24.3778 23.2167 23.2167C24.3779 22.0555 24.9584 20.65 24.9584 19C24.9584 17.35 24.3779 15.9444 23.2167 14.7833C22.0556 13.6222 20.6501 13.0417 19.0001 13.0417C17.3501 13.0417 15.9445 13.6222 14.7834 14.7833C13.6223 15.9444 13.0417 17.35 13.0417 19C13.0417 20.65 13.6223 22.0555 14.7834 23.2167C15.9445 24.3778 17.3501 24.9583 19.0001 24.9583ZM19.0001 22.2083C18.114 22.2083 17.3577 21.8951 16.7313 21.2687C16.1049 20.6423 15.7917 19.8861 15.7917 19C15.7917 18.1139 16.1049 17.3576 16.7313 16.7312C17.3577 16.1048 18.114 15.7917 19.0001 15.7917C19.8862 15.7917 20.6424 16.1048 21.2688 16.7312C21.8952 17.3576 22.2084 18.1139 22.2084 19C22.2084 19.8861 21.8952 20.6423 21.2688 21.2687C20.6424 21.8951 19.8862 22.2083 19.0001 22.2083ZM16.9834 34.5833H21.0167L21.6584 29.45C22.6667 29.2055 23.6216 28.8236 24.523 28.3042C25.4244 27.7847 26.2417 27.1583 26.9751 26.425L31.8334 28.5333L33.6667 25.2333L29.3584 22.0708C29.4806 21.5514 29.5799 21.0396 29.6563 20.5354C29.7327 20.0312 29.7709 19.5194 29.7709 19C29.7709 18.4805 29.7404 17.9687 29.6792 17.4646C29.6181 16.9604 29.5112 16.4486 29.3584 15.9292L33.6667 12.7667L31.8334 9.46666L26.9751 11.575C26.2723 10.7805 25.4779 10.116 24.5917 9.58124C23.7056 9.04652 22.7279 8.70277 21.6584 8.54999L21.0167 3.41666H16.9834L16.3417 8.54999C15.3029 8.76388 14.3327 9.13054 13.4313 9.64999C12.5299 10.1694 11.7279 10.8111 11.0251 11.575L6.16675 9.46666L4.33341 12.7667L8.64175 15.9292C8.51953 16.4486 8.42022 16.9604 8.34383 17.4646C8.26744 17.9687 8.22925 18.4805 8.22925 19C8.22925 19.5194 8.26744 20.0312 8.34383 20.5354C8.42022 21.0396 8.51953 21.5514 8.64175 22.0708L4.33341 25.2333L6.16675 28.5333L11.0251 26.425C11.7584 27.1583 12.5758 27.7847 13.4772 28.3042C14.3786 28.8236 15.3334 29.2055 16.3417 29.45L16.9834 34.5833Z" fill="white"/>
</svg>
