<svg width="39" height="39" viewBox="0 0 39 39" fill="none" xmlns="http://www.w3.org/2000/svg">
<path d="M33.9 0.600006H5.10001C2.61601 0.600006 0.600006 2.61601 0.600006 5.10001V33.9C0.600006 36.384 2.61601 38.4 5.10001 38.4H33.9C36.384 38.4 38.4 36.384 38.4 33.9V5.10001C38.4 2.61601 36.384 0.600006 33.9 0.600006ZM30.3 14.1H28.5C26.574 14.1 25.8 14.55 25.8 15.9V18.6H30.3L29.4 23.1H25.8V36.6H21.3V23.1H17.7V18.6H21.3V15.9C21.3 12.3 23.1 9.60001 26.7 9.60001C29.31 9.60001 30.3 10.5 30.3 10.5V14.1Z" fill="#284703"/>
</svg>
