<svg width="667" height="520" viewBox="0 0 667 520" fill="none" xmlns="http://www.w3.org/2000/svg">
<g clip-path="url(#clip0_24_113)">
<path d="M400.783 2.98322C381.091 14.0997 362.857 27.6638 347.488 42.7067C319.877 69.6309 305.55 96.4532 302.164 127.457C300.132 146.12 303.831 165.09 311.749 176.767C314.406 180.693 318.939 184.977 321.96 186.507C324.044 187.577 328.629 188.801 328.994 188.444C329.15 188.342 328.994 187.424 328.733 186.456C325.868 176.971 324.357 156.625 325.555 144.59C327.431 125.723 332.901 108.182 343.06 88.1923C347.175 80.1354 356.605 64.0727 357.96 62.8999C358.324 62.5939 358.116 63.1548 357.543 64.1237C353.167 71.5176 351.812 74.0163 348.374 80.7474C338.892 99.3088 333.422 115.219 330.452 133.066C329.775 136.942 329.567 141.633 329.567 151.067C329.515 165.396 330.14 170.648 333.213 182.223C337.954 200.224 344.258 213.635 363.69 246.78C374.579 265.393 383.435 281.812 386.405 288.849L387.499 291.45L383.591 295.733C339.778 342.953 320.554 373.752 314.354 406.541C313.573 410.518 313.364 414.139 313.364 423.114C313.364 434.23 313.521 436.015 315.448 445.295C315.761 446.723 315.605 446.927 313.885 447.743C310.551 449.324 309.665 448.61 310.291 444.735C310.655 442.134 309.822 440.247 308.467 440.706C306.748 441.216 304.768 432.751 303.674 420.564C302.789 410.161 302.528 375.792 303.153 346.624C304.039 304.096 302.841 281.608 298.256 257.846C295.235 242.242 290.337 225.975 284.138 211.238C280.543 202.773 271.27 184.467 266.581 176.563L263.247 171.005L264.706 168.761C266.425 166.109 267.779 160.704 267.779 156.574C267.779 142.041 258.246 121.389 241.366 99.2578C227.039 80.4414 215.265 69.07 183.278 43.1146C174.89 36.2816 164.054 27.6128 159.157 23.7373C154.312 19.9129 146.549 13.6917 142.017 9.86728C137.432 6.04279 133.629 2.98322 133.525 3.08521C133.264 3.39117 135.817 15.1195 137.641 21.7996C143.059 41.7378 150.873 61.523 161.814 82.9911C175.828 110.425 189.634 130.108 210.316 152.086C222.715 165.345 234.281 173.707 243.294 176.053C246.42 176.869 253.192 177.073 253.192 176.359C253.192 175.798 247.566 165.905 242.929 158.461C231.676 140.256 221.934 126.437 191.249 85.0308C174.369 62.3389 174.369 62.2369 190.415 82.1752C222.559 122.205 232.405 135.004 244.596 152.851C277.522 200.989 291.64 238.723 295.391 288.237C296.12 298.385 296.641 324.289 296.172 328.522L295.808 332.091L294.141 327.502C289.764 315.621 284.815 305.983 277.938 295.886C269.499 283.444 261.319 274.418 249.024 263.863C236.834 253.409 225.945 245.862 185.414 219.958C155.458 200.836 133.577 183.702 117.792 167.129L112.53 161.571L113.52 159.888C116.281 155.248 117.062 146.426 115.395 139.287C112.999 129.038 107.424 116.646 98.0468 100.839C93.1497 92.6287 86.2207 82.8891 75.0719 68.764C69.2371 61.3191 62.7249 52.6503 60.5889 49.4887C55.5355 41.8908 50.5342 31.8962 48.1377 24.5022C47.0958 21.1877 46.0538 18.0261 45.8975 17.5162C45.5849 16.7003 45.1161 17.1592 43.2406 20.0658C37.4057 29.1426 33.1337 42.0948 31.8313 54.894C29.539 76.7699 35.2176 106.346 45.637 126.845C57.0463 149.18 73.9779 166.16 88.7214 169.985C93.9311 171.362 103.517 170.444 103.361 168.608C103.309 168.2 101.329 165.345 98.9845 162.285C86.5854 146.273 74.3947 125.672 65.0693 105.122C61.2141 96.5551 54.0247 78.8606 54.2852 78.6057C54.4415 78.5037 55.6397 81.0023 57.0463 84.1639C83.0949 143.112 116.802 182.478 173.744 220.417C177.495 222.865 180.673 225.057 180.881 225.21C181.09 225.363 176.766 225.516 171.243 225.516C163.272 225.567 159.938 225.771 154.885 226.689C141.808 228.984 129.045 232.808 104.455 241.681C89.8675 246.933 75.4366 251.879 75.2803 251.675C75.2282 251.573 74.2905 249.942 73.1964 248.004C67.8304 238.468 58.7655 233.573 47.2521 234.032L42.1465 234.236L33.8631 238.417C22.5059 244.129 18.6507 245.199 8.12708 245.556L-0.156372 245.76L0.156211 249.432C0.937669 259.732 6.61626 270.849 14.8476 278.192C23.652 286.096 34.8008 290.889 45.3245 291.399C61.7872 292.164 75.3324 284.413 78.0936 272.634C78.7708 269.829 78.8229 263.149 78.1978 262.792C77.9373 262.639 74.6031 262.996 70.8 263.608C65.1214 264.526 61.5788 264.73 51.5761 264.73C39.0207 264.781 35.8949 264.424 28.2366 262.231C24.4856 261.109 25.0066 260.905 29.1743 261.772C34.332 262.894 43.8136 263.2 50.2737 262.537C63.6106 261.109 75.6971 257.948 105.236 248.157C143.371 235.562 154.572 233.063 171.66 233.573C181.298 233.828 188.019 234.95 197.813 237.958C202.502 239.335 203.908 240.1 211.827 245.454C241.314 265.393 257.152 279.875 270.124 298.895C279.449 312.561 286.43 329.44 293.359 355.038L295.026 361.157L294.922 384.869C294.766 418.728 295.703 431.323 299.142 441.93L300.809 447.233L298.308 449.477C296.016 451.466 295.495 451.721 293.62 451.568C291.692 451.415 291.379 451.211 290.494 449.375C289.66 447.59 289.608 446.927 290.129 443.001C290.963 436.474 291.015 436.627 287.576 433.108C284.971 430.457 284.45 429.59 284.45 428.111C284.45 425.969 283.148 424.643 281.116 424.643C279.605 424.643 276.74 427.04 275.073 429.641C274.344 430.762 274.292 430.558 274.448 426.836C274.604 423.572 274.5 422.604 273.771 421.941C273.302 421.482 272.624 421.074 272.312 421.074C271.999 421.074 270.176 422.706 268.3 424.643C266.425 426.632 264.445 428.213 263.924 428.213C263.091 428.213 262.986 427.907 263.299 425.765C263.612 423.47 263.455 423.114 261.684 420.564C260.59 419.085 259.079 417.402 258.35 416.841C257.047 415.924 256.891 415.924 255.12 416.739C253.296 417.555 250.171 420.615 246.367 425.204L244.492 427.448L242.304 425.969C241.001 425.051 239.959 424.643 239.647 424.949C239.386 425.204 238.918 427.448 238.605 429.998C237.928 434.944 236.938 437.901 235.948 437.901C235.635 437.901 233.395 436.066 231.051 433.873C226.258 429.386 222.82 427.295 221.673 428.213C221.309 428.519 220.215 429.998 219.277 431.527C218.339 433.057 217.245 434.332 216.933 434.332C216.255 434.332 215.161 431.935 213.911 427.448C212.556 422.757 212.556 422.757 212.035 423.572C211.827 423.98 211.462 426.377 211.254 428.927C210.837 433.72 210.316 435.862 209.483 435.862C209.274 435.862 208.91 435.199 208.753 434.434C208.493 433.21 207.972 432.802 205.367 431.884C201.46 430.457 201.303 430.457 200.209 432.139C199.428 433.312 199.272 434.587 199.376 439.941C199.376 443.46 199.219 446.723 198.959 447.182C198.334 448.355 195.364 448.406 193.28 447.335C192.395 446.876 191.718 446.672 191.718 446.876C191.718 447.029 193.124 448.661 194.843 450.548C197.865 453.76 199.063 456.106 198.594 457.891C198.178 459.471 196.458 459.471 192.499 457.993C191.665 457.738 191.77 457.993 193.02 459.267L194.531 460.848L192.759 460.542C190.415 460.083 186.82 458.707 182.861 456.769L179.735 455.239V459.828V464.418L177.547 465.948C174.161 468.395 173.223 467.987 170.306 462.888C166.555 456.361 165.304 454.729 164.054 454.729C162.96 454.729 162.908 454.882 163.272 458.809C163.637 463.245 163.793 463.041 160.355 462.888C158.011 462.786 157.854 463.194 158.011 469.415C158.167 475.33 157.854 475.636 152.176 475.636C149.102 475.636 147.8 475.381 146.393 474.565C143.788 473.036 141.704 470.996 141.704 469.976C141.704 469.517 141.34 468.854 140.923 468.497C139.933 467.681 139.933 466.661 140.923 463.857C141.392 462.633 141.652 461.154 141.496 460.542C141.34 459.981 139.568 458.401 137.589 457.075C131.128 452.689 128.576 453.964 130.399 460.644C131.181 463.704 131.233 464.061 130.451 464.826C129.618 465.591 129.618 466.763 130.503 470.537C130.92 472.271 128.524 474.82 126.909 474.412C126.336 474.259 124.877 474.004 123.679 473.8C120.917 473.393 120.449 474.361 121.751 477.778C122.585 480.124 122.585 480.226 121.647 480.939C120.761 481.551 120.709 481.806 121.282 483.03C122.637 485.886 119.459 485.886 114.614 483.03C107.372 478.798 106.851 478.798 102.579 482.52C97.7863 486.702 97.4737 486.549 97.3174 479.563C97.1611 474.106 97.109 473.851 96.015 473.698C94.0874 473.444 92.3682 475.585 91.9514 478.747C91.5867 481.602 90.5448 483.795 89.555 483.795C89.2424 483.795 88.5651 483.285 87.992 482.622C87.0543 481.5 87.0543 481.602 87.0022 488.282V495.013L85.1788 495.88C83.4596 496.696 83.3033 496.696 80.7505 495.37C76.4786 493.178 74.551 493.739 73.7174 497.461C73.5611 498.328 73.0402 499.093 72.6755 499.093C72.2587 499.093 70.279 497.716 68.1951 496.033C66.007 494.198 63.9752 492.974 63.2459 492.974C60.7452 492.974 58.7134 497.104 55.7439 508.17C54.1289 514.034 54.0768 514.646 54.6499 517.246L55.275 520H335.714H616.153L616.83 517.246C617.456 514.595 617.404 514.136 615.58 507.405C613.6 500.266 611.725 495.523 610.214 493.892C608.703 492.26 607.036 492.77 603.181 496.084C601.149 497.767 599.169 499.093 598.701 498.991C598.232 498.889 597.711 498.073 597.502 497.206C596.773 493.637 595.002 493.178 590.73 495.319C588.177 496.645 588.021 496.645 586.302 495.88L584.53 495.013V488.282C584.478 481.602 584.478 481.5 583.54 482.622C582.967 483.285 582.29 483.795 581.977 483.795C581.092 483.795 579.946 481.653 579.581 479.206C579.373 477.931 578.852 476.299 578.487 475.534C577.758 474.106 575.674 473.189 574.684 473.851C574.319 474.055 574.111 476.401 574.111 479.767C574.111 484.968 574.059 485.325 573.069 485.325C572.496 485.325 570.568 484.05 568.849 482.469C565.932 479.869 565.463 479.614 563.743 479.869C562.701 479.971 560.097 481.143 557.961 482.418C552.178 485.835 548.948 486.141 550.146 483.081C550.719 481.5 550.459 480.735 549.312 480.735C548.427 480.735 548.375 480.99 549.677 477.727C550.615 475.279 550.667 474.871 549.938 474.208C549.26 473.545 548.739 473.494 546.551 474.004C543.478 474.667 542.696 474.514 541.55 472.73C540.821 471.659 540.769 471.098 541.29 468.956C541.81 466.814 541.81 466.254 541.081 465.183C540.352 464.061 540.352 463.653 541.081 460.491C542.019 456.259 541.55 454.219 539.57 454.219C538.112 454.219 530.453 458.911 530.037 460.083C529.828 460.491 530.141 462.327 530.61 464.163C531.495 467.273 531.495 467.528 530.662 468.395C530.193 468.905 529.828 469.67 529.828 470.129C529.828 470.996 528.369 472.373 525.4 474.31C523.576 475.483 522.795 475.636 519.148 475.636C516.856 475.636 514.72 475.432 514.407 475.228C513.886 474.922 513.157 472.679 513.105 471.302C513.053 470.996 513.209 469.364 513.47 467.63C513.939 463.602 513.365 462.735 510.344 462.99L508.208 463.143L508.364 459.165C508.52 455.902 508.416 455.188 507.687 454.933C506.384 454.423 505.134 455.953 501.748 461.919C498.309 467.987 497.684 468.344 494.142 466.101L491.797 464.673V459.93C491.797 457.381 491.641 455.239 491.485 455.239C491.328 455.239 490.234 455.8 489.036 456.514C486.744 457.789 481.221 459.93 478.512 460.542L476.95 460.95L478.512 459.267C479.711 457.993 479.867 457.738 479.033 458.044C477.002 458.758 474.449 459.216 473.772 458.962C471.375 458.095 473.042 453.811 477.418 449.63C480.18 447.029 480.492 446.213 478.252 447.335C476.064 448.457 473.199 448.355 472.521 447.131C472.261 446.57 472 443.358 472 439.992C472 433.771 471.531 431.476 470.229 430.966C469.812 430.813 468.041 431.17 466.27 431.833C463.561 432.802 463.04 433.159 462.779 434.434C462.623 435.199 462.31 435.862 462.05 435.862C461.164 435.862 460.643 433.975 460.278 429.743C459.653 421.686 459.236 421.431 457.413 427.958C456.267 432.037 455.173 434.332 454.339 434.332C454.079 434.332 452.933 432.802 451.734 430.966C449.859 428.06 449.442 427.703 448.4 428.009C446.473 428.57 443.295 430.966 439.596 434.536C437.668 436.372 435.793 437.901 435.324 437.901C434.334 437.901 433.605 435.607 432.875 429.998C432.563 427.448 432.094 425.204 431.833 424.949C431.573 424.643 430.844 424.847 429.958 425.459C427.145 427.499 426.936 427.397 423.342 423.114C419.591 418.728 417.246 416.739 415.11 416.229C413.495 415.822 412.245 416.892 409.432 421.023C408.077 423.063 407.921 423.674 408.181 425.561C408.442 427.295 408.338 427.754 407.608 428.06C406.983 428.264 405.785 427.397 403.284 424.745C401.357 422.706 399.429 421.074 398.908 421.074C397.501 421.074 396.876 422.961 397.085 427.04C397.241 430.558 397.189 430.762 396.459 429.641C394.896 427.142 391.771 424.643 390.26 424.643C388.384 424.643 387.082 426.071 387.082 428.213C387.082 429.641 386.561 430.406 384.217 432.598C382.654 434.026 381.247 435.862 381.039 436.678C380.83 437.443 380.987 440.196 381.351 442.746C381.872 446.519 381.872 447.692 381.299 448.661C380.987 449.324 380.518 450.242 380.309 450.65C380.101 451.109 379.059 451.466 377.913 451.568C376.194 451.67 375.516 451.415 373.745 449.936C372.599 448.967 371.036 447.284 370.255 446.162L368.796 444.174L371.922 439.278C379.945 426.836 387.238 413.374 392.083 402.206L394.792 395.832L399.689 392.11C409.015 384.971 426.103 374.211 441.211 366.002L447.15 362.738L453.454 362.279C456.944 362.075 470.333 361.922 483.201 362.075C502.842 362.279 509.562 362.534 524.618 363.707C547.437 365.543 574.736 365.798 585.52 364.319C589.063 363.809 592.136 363.605 592.345 363.809C592.553 364.013 593.022 365.033 593.387 366.002C594.689 369.265 597.45 373.039 600.107 375.129C604.171 378.24 607.766 379.413 614.382 379.668C621.884 379.974 627.927 378.648 635.221 375.027C639.909 372.784 641.212 371.815 646.057 367.072C649.079 364.115 652.673 359.933 654.08 357.843C660.592 348.001 665.229 334.743 666.583 321.944L667 318.425L665.229 318.731C664.239 318.884 657.362 319.292 649.912 319.598C614.278 321.077 614.382 321.077 607.453 324.289C597.398 329.032 590.834 339.077 590.782 349.888V352.386L595.679 352.029C609.016 351.112 624.749 346.828 637.044 340.811C639.701 339.536 641.837 338.567 641.837 338.669C641.837 338.771 640.378 339.791 638.607 340.862C623.186 350.347 606.411 355.956 586.093 358.455C579.06 359.321 554.939 359.321 545.197 358.455C541.185 358.098 530.766 357.129 522.014 356.313C500.185 354.273 492.474 353.763 478.2 353.355L465.905 352.998L482.889 344.33C511.959 329.491 528.786 320.057 543.582 310.266L550.823 305.473L553.949 307.054C556.762 308.482 557.648 308.635 562.597 308.788C566.557 308.94 569.057 308.737 571.506 308.125C592.032 302.974 614.069 283.138 625.635 259.324C635.69 238.723 638.555 215.573 633.71 194.258C631.313 183.804 627.771 174.829 617.768 154.126C615.059 148.517 612.298 142.602 611.621 140.97C610.943 139.389 610.214 138.216 610.006 138.42C608.703 139.848 604.588 154.636 601.462 168.914C597.919 185.181 595.002 195.481 592.084 202.314C589.011 209.453 577.758 227.454 560.201 253.358C545.978 274.367 543.009 280.945 543.478 290.634C543.582 293.082 543.946 295.376 544.207 295.631C545.145 296.549 558.377 287.32 568.745 278.549C589.792 260.854 605.161 237.754 611.621 214.043C612.454 211.085 613.132 209.147 613.132 209.708C613.184 211.238 610.787 220.264 608.703 226.23C599.378 253.052 581.404 275.846 553.272 296.6C535.767 309.501 517.69 319.7 472.209 342.443C435.689 360.698 422.3 367.99 406.514 378.342C402.711 380.84 399.585 382.727 399.585 382.574C399.585 382.421 400.262 379.617 401.148 376.302C408.129 349.378 406.931 324.034 397.553 298.232L395.47 292.623L409.327 277.682C430.739 254.633 442.617 241.171 449.859 231.788L452.464 228.423L457.153 228.678C462.779 229.035 466.165 228.219 471.948 225.21C492.318 214.553 510.031 183.294 514.199 150.812C516.283 134.188 515.085 114.403 509.979 81.9712C507.739 67.6932 506.072 55.2509 505.29 47.1431C504.926 43.3186 504.457 40.157 504.301 40.157C503.884 40.157 499.039 46.9391 495.496 52.4973C482.472 72.7415 469.448 104.969 450.849 162.54C441.107 192.728 438.866 202.824 440.169 211.238C440.742 215.165 442.409 219.703 443.555 220.621C444.649 221.488 456.944 205.629 463.508 194.92C475.282 175.696 483.357 153.667 488.671 126.335C490.964 114.403 491.172 113.638 491.224 115.066C491.276 116.697 488.984 131.332 487.317 139.848C481.742 168.047 472.73 189.974 457.726 211.748C446.733 227.658 432.354 244.282 402.034 276.152L392.708 285.943L388.697 277.937C386.457 273.5 383.435 267.789 381.924 265.189C379.111 260.293 378.434 257.846 376.402 244.536C374.891 234.899 375.621 226.281 378.694 217.612C382.081 207.822 384.79 203.181 399.064 182.121C414.068 160.041 418.34 152.392 422.821 139.338L425.061 132.709L429.906 132.352C433.917 132.046 435.376 131.689 438.45 130.159C447.41 125.876 453.297 115.423 454.131 102.317C454.808 91.8638 450.849 79.7785 441.784 65.1436C438.658 60.0952 428.968 45.3073 428.395 44.7464C427.874 44.2874 418.288 54.639 413.912 60.2992C406.254 70.2938 400.054 81.0533 397.241 89.2632C393.75 99.4108 394.584 110.221 399.325 117.411C402.294 121.899 409.536 127.712 413.235 128.63C414.433 128.936 414.589 128.681 416.413 123.173C419.747 112.924 421.727 103.949 424.071 88.1413C424.904 82.4301 425.738 77.6368 425.842 77.5348C426.103 77.2798 426.051 78.2997 425.061 93.9545C424.071 110.476 421.727 124.295 418.288 134.545C413.704 148.007 407.921 158.155 393.594 177.787C383.018 192.371 378.486 199.306 374.839 206.649C369.629 217.153 367.285 225.822 367.285 234.797C367.285 237.754 367.077 239.488 366.764 239.284C365.826 238.723 354.521 218.785 350.041 209.708C346.081 201.753 340.194 187.526 340.194 185.997C340.194 185.691 341.445 184.212 343.008 182.682C346.238 179.47 349.78 172.942 351.812 166.364C352.541 164.121 354.677 155.605 356.605 147.497C364.159 115.525 377.079 74.3223 390.208 40.412C395.209 27.5618 405.264 2.47333 405.889 1.30048C406.202 0.739563 406.358 0.229614 406.254 0.127625C406.149 0.0256348 403.701 1.30048 400.783 2.98322ZM491.641 112.669C491.485 113.026 491.38 112.771 491.38 112.057C491.38 111.343 491.485 111.088 491.641 111.394C491.745 111.751 491.745 112.363 491.641 112.669ZM391.979 303.433C395.626 315.06 397.345 323.83 397.918 334.284C398.908 351.112 396.72 366.053 390.625 384.359C388.541 390.682 388.489 390.784 385.311 393.538C378.33 399.606 364.732 413.476 360.981 418.269C351.395 430.558 343.841 444.378 339.882 456.871C339.309 458.707 338.632 459.828 338.058 459.981C337.485 460.134 336.86 461.154 336.391 462.633L335.662 465.081L334.985 462.735C334.151 459.777 333.057 458.707 332.692 460.44C332.536 461.052 332.328 462.276 332.224 463.143C332.067 464.52 331.859 464.265 330.088 460.593C324.409 448.916 321.439 435.76 321.439 422.298C321.439 404.96 324.93 391.804 334.724 372.376C344.258 353.559 357.699 334.998 380.622 308.991C385.675 303.331 389.947 298.793 390.208 298.946C390.468 299.099 391.25 301.088 391.979 303.433ZM376.61 415.516C372.338 423.318 368.223 429.947 361.867 439.329C356.709 446.927 356.553 447.08 355.042 446.774C354.209 446.621 353.375 446.366 353.323 446.315C353.219 446.213 354.365 443.817 355.824 441.012C358.897 435.148 365.253 425.612 369.629 420.309C373.537 415.516 379.319 409.243 379.58 409.498C379.684 409.6 378.33 412.303 376.61 415.516ZM367.598 449.936C367.181 450.956 366.347 450.803 365.983 449.63C365.826 449.069 366.035 448.049 366.608 447.233L367.545 445.856L367.702 447.539C367.806 448.457 367.754 449.528 367.598 449.936ZM350.822 454.729C350.041 455.851 349.311 456.769 349.207 456.769C348.947 456.769 349.416 455.188 350.458 452.74C351.135 451.262 351.291 451.109 351.708 451.823C352.073 452.434 351.864 453.199 350.822 454.729ZM318.991 456.259C319.251 457.33 318.626 457.534 317.011 456.973C316.23 456.667 316.282 456.565 317.063 455.698C318.053 454.627 318.574 454.78 318.991 456.259Z" fill="black" fill-opacity="0.09"/>
<path d="M189.634 444.48C189.634 445.092 191.144 446.264 191.509 445.907C192.082 445.398 191.249 444.022 190.415 444.022C189.998 444.022 189.634 444.225 189.634 444.48Z" fill="black"/>
<path d="M479.971 444.786C479.815 445.245 479.815 445.754 480.023 445.907C480.388 446.264 481.899 445.092 481.899 444.48C481.899 443.716 480.336 443.971 479.971 444.786Z" fill="black"/>
<path d="M189.634 455.699C189.634 456.31 191.144 457.483 191.509 457.126C192.082 456.616 191.249 455.24 190.415 455.24C189.998 455.24 189.634 455.444 189.634 455.699Z" fill="black"/>
<path d="M479.971 456.005C479.815 456.463 479.815 456.973 480.023 457.126C480.388 457.483 481.899 456.31 481.899 455.699C481.899 454.934 480.336 455.189 479.971 456.005Z" fill="black"/>
</g>
<defs>
<clipPath id="clip0_24_113">
<rect width="667" height="520" fill="white"/>
</clipPath>
</defs>
</svg>
