<svg width="42" height="42" viewBox="0 0 42 42" fill="none" xmlns="http://www.w3.org/2000/svg">
<path d="M12.72 0.759995C6.12361 0.759995 0.76001 6.12359 0.76001 12.72V29.28C0.76001 35.8764 6.12361 41.24 12.72 41.24H29.28C35.8764 41.24 41.24 35.8764 41.24 29.28V12.72C41.24 6.12359 35.8764 0.759995 29.28 0.759995H12.72ZM32.04 8.11999C33.052 8.11999 33.88 8.94799 33.88 9.95999C33.88 10.972 33.052 11.8 32.04 11.8C31.028 11.8 30.2 10.972 30.2 9.95999C30.2 8.94799 31.028 8.11999 32.04 8.11999ZM21 10.88C26.5844 10.88 31.12 15.4156 31.12 21C31.12 26.5844 26.5844 31.12 21 31.12C15.4156 31.12 10.88 26.5844 10.88 21C10.88 15.4156 15.4156 10.88 21 10.88ZM21 12.72C16.4368 12.72 12.72 16.4368 12.72 21C12.72 25.5632 16.4368 29.28 21 29.28C25.5632 29.28 29.28 25.5632 29.28 21C29.28 16.4368 25.5632 12.72 21 12.72Z" fill="#284703"/>
</svg>
