<svg width="35" height="43" viewBox="0 0 35 43" fill="none" xmlns="http://www.w3.org/2000/svg">
<path d="M17.4469 35.95C18.0135 35.95 18.4474 35.8526 18.7484 35.6578C19.0495 35.463 19.2 35.1708 19.2 34.7812C19.2 34.3917 19.0495 34.0906 18.7484 33.8781C18.4474 33.6656 17.9958 33.5594 17.3938 33.5594C15.9062 33.5594 14.3922 33.0901 12.8516 32.1516C11.3109 31.213 10.3281 29.5573 9.90312 27.1844C9.83229 26.8656 9.67292 26.6089 9.425 26.4141C9.17708 26.2193 8.91146 26.1219 8.62813 26.1219C8.23854 26.1219 7.9375 26.2724 7.725 26.5734C7.5125 26.8745 7.44167 27.1844 7.5125 27.5031C8.04375 30.4781 9.30104 32.6297 11.2844 33.9578C13.2677 35.2859 15.3219 35.95 17.4469 35.95ZM17.5 42.75C12.6479 42.75 8.60156 41.0854 5.36094 37.7563C2.12031 34.4271 0.5 30.2833 0.5 25.325C0.5 21.7833 1.90781 17.9318 4.72344 13.7703C7.53906 9.60885 11.7979 5.10208 17.5 0.25C23.2021 5.10208 27.4609 9.60885 30.2766 13.7703C33.0922 17.9318 34.5 21.7833 34.5 25.325C34.5 30.2833 32.8797 34.4271 29.6391 37.7563C26.3984 41.0854 22.3521 42.75 17.5 42.75ZM17.5 39.5625C21.4667 39.5625 24.7604 38.2078 27.3813 35.4984C30.0021 32.7891 31.3125 29.3979 31.3125 25.325C31.3125 22.5271 30.1349 19.3484 27.7797 15.7891C25.4245 12.2297 21.9979 8.46667 17.5 4.5C13.0021 8.46667 9.57552 12.2297 7.22031 15.7891C4.8651 19.3484 3.6875 22.5271 3.6875 25.325C3.6875 29.3979 4.99792 32.7891 7.61875 35.4984C10.2396 38.2078 13.5333 39.5625 17.5 39.5625Z" fill="#284703"/>
</svg>
