<svg width="39" height="39" viewBox="0 0 39 39" fill="none" xmlns="http://www.w3.org/2000/svg">
<path d="M33.9 0.600006H5.10001C2.61601 0.600006 0.600006 2.61601 0.600006 5.10001V33.9C0.600006 36.384 2.61601 38.4 5.10001 38.4H33.9C36.384 38.4 38.4 36.384 38.4 33.9V5.10001C38.4 2.61601 36.384 0.600006 33.9 0.600006ZM12.3 15V32.1H6.90001V15H12.3ZM6.90001 10.023C6.90001 8.76301 7.98001 7.80001 9.60001 7.80001C11.22 7.80001 12.237 8.76301 12.3 10.023C12.3 11.283 11.292 12.3 9.60001 12.3C7.98001 12.3 6.90001 11.283 6.90001 10.023ZM32.1 32.1H26.7C26.7 32.1 26.7 23.766 26.7 23.1C26.7 21.3 25.8 19.5 23.55 19.464H23.478C21.3 19.464 20.4 21.318 20.4 23.1C20.4 23.919 20.4 32.1 20.4 32.1H15V15H20.4V17.304C20.4 17.304 22.137 15 25.629 15C29.202 15 32.1 17.457 32.1 22.434V32.1Z" fill="#284703"/>
</svg>
