<svg width="1434" height="100" viewBox="0 0 1434 219" fill="none" xmlns="http://www.w3.org/2000/svg">
<path d="M222.352 9.875C210.092 23.8633 197.944 39.3503 189.17 52.6392C182.421 62.6308 181.071 64.1296 177.584 65.0288C175.447 65.5284 173.31 66.028 172.973 66.028C172.523 66.028 168.473 62.1313 164.087 57.2354C159.587 52.4394 153.626 46.4444 150.814 43.9465C145.19 38.6509 145.19 38.4511 151.264 29.5585C155.988 22.4645 152.501 24.7625 147.102 32.1563C145.19 34.8541 143.053 37.0522 142.265 37.0522C141.59 37.0522 136.979 35.7533 132.142 34.0548C127.193 32.4561 123.031 31.2571 122.806 31.4569C122.581 31.6568 126.63 33.3553 131.692 35.2538C137.654 37.4519 140.916 39.1505 140.803 40.1497C140.691 40.8491 139.453 44.2462 138.104 47.5435C135.854 52.5393 135.404 55.4369 135.404 65.0288C135.404 71.8232 136.079 78.4176 136.979 81.2153L138.441 85.9114L134.279 89.7082C131.917 91.8064 127.98 95.903 125.618 98.7007C123.144 101.598 121.006 103.996 120.781 103.996C120.669 103.996 118.194 100.899 115.382 97.102L110.208 90.1078L115.72 86.5109C118.869 84.5125 121.344 82.6141 121.344 82.4143C121.344 81.8148 119.994 82.5142 113.808 86.2111L109.196 89.0088L105.484 84.7124C103.459 82.4143 97.9477 76.5192 93.2235 71.6233C77.7011 55.3369 77.0262 54.9373 86.5871 67.5267C92.8861 75.9197 102.447 91.0071 101.997 92.1062C101.772 92.5059 96.2605 96.4026 89.5116 100.899L77.3637 108.992L72.9769 106.494C69.9399 104.796 66.0031 100.499 60.0416 92.306C48.6809 76.9189 34.3958 60.4327 18.6485 44.546C1.21386 26.9607 -5.19757 21.765 4.5883 33.0556C13.1369 42.8474 27.8719 62.431 34.3958 72.5226C40.5823 82.0146 46.3188 92.306 45.194 91.8064C27.422 84.1129 7.06289 76.0196 5.71311 76.0196C5.26319 76.0196 9.53748 78.2178 15.0491 80.8156C26.1847 86.1112 31.5838 89.0088 42.9444 95.903C51.0431 100.699 50.8181 100.399 57.4545 114.787L60.7164 122.181L52.9552 129.775C33.1585 149.458 21.573 166.044 13.5868 186.128C9.76244 195.52 6.61296 208.809 6.61296 215.003V219L18.0861 218.7L29.4467 218.401L29.2217 210.907C28.8842 200.615 31.5838 189.625 37.4328 176.835C41.9321 166.844 56.6671 143.663 62.4037 137.168L64.8783 134.471L66.228 137.468C67.2403 139.866 67.1279 140.965 65.8906 142.964C62.4037 148.159 60.2665 157.052 61.0539 163.247L61.7288 169.142L55.7673 175.037C45.7564 184.729 37.6578 201.315 36.8704 213.505L36.533 218.401L46.3188 218.7C51.7179 218.8 56.1047 218.8 56.1047 218.7C56.1047 218.5 55.6548 216.902 54.9799 215.003C52.8428 208.109 57.6794 188.126 63.416 180.232C65.1032 178.034 65.1032 178.034 70.9522 183.03L76.8013 188.026L77.0262 203.213L77.3637 218.401L96.0356 218.7L114.707 218.9L113.808 211.207C112.683 201.315 113.02 171.839 114.258 165.944L115.27 161.448L118.869 166.944C120.781 169.941 122.694 173.738 122.919 175.436C124.606 186.028 126.293 205.511 126.068 211.606L125.843 218.9H148.452H171.061L170.498 214.104C167.799 191.623 167.124 172.939 168.361 157.252C169.148 148.159 170.161 140.066 170.611 139.267C171.286 138.268 173.76 140.865 179.722 148.759L187.82 159.75L187.145 175.037C186.47 189.525 183.209 207.51 179.834 215.403C179.272 216.802 178.709 218.201 178.709 218.5C178.709 218.7 184.783 218.9 192.207 218.9H205.705V216.102C205.705 214.504 205.142 208.409 204.467 202.514C203.793 196.619 203.568 191.523 203.793 191.223C204.58 190.524 207.729 204.212 208.517 212.206L209.304 218.9H312.225C405.921 218.9 415.145 218.8 414.47 217.301C412.67 213.105 412.67 210.307 414.357 200.715C415.595 193.921 417.282 188.426 419.532 184.429C423.019 178.034 427.855 172.139 428.755 172.939C429.767 173.838 432.017 204.013 431.567 211.306L431.23 218.401L465.986 218.7L500.743 218.9L500.068 204.512C499.618 196.519 498.493 184.729 497.594 178.334C495.906 167.243 495.906 166.544 497.931 163.746L500.068 160.749L501.418 168.143C503.668 181.132 505.017 196.119 504.792 207.41L504.455 218.401H540.336H576.105V210.907L575.993 203.413L577.23 211.107L578.355 218.9H614.237H650.006V215.103C650.006 213.005 648.993 207.61 647.756 203.213C644.607 192.422 645.731 186.028 653.268 172.539C657.429 165.045 692.974 115.686 696.91 111.99C697.248 111.69 696.46 113.788 695.223 116.586C689.937 128.476 683.075 152.855 679.813 170.94C678.238 180.033 675.876 205.711 675.876 214.604V218.9H694.773H713.783L714.457 207.11C715.582 188.426 721.544 168.742 731.217 151.656C735.379 144.063 735.491 143.963 732.679 145.561C729.192 147.56 722.219 156.153 714.795 167.643C711.87 172.239 709.058 176.136 708.721 176.336C708.271 176.536 708.046 172.139 708.271 166.644C708.608 157.252 708.946 155.953 712.545 150.158C716.595 143.563 716.482 142.564 712.208 146.161C709.058 148.859 708.946 148.659 711.308 134.671C714.795 113.688 719.857 96.1028 728.18 76.2195C735.379 58.9339 736.841 56.0364 738.303 56.0364C740.553 56.0364 780.596 64.9289 788.358 67.227C802.755 71.3236 815.691 78.5175 820.077 84.8123C821.315 86.6108 822.214 88.2094 821.99 88.4093C821.765 88.6091 818.503 90.5075 814.791 92.7057C811.079 94.9038 803.768 99.6998 798.481 103.297C793.194 106.894 788.807 109.492 788.583 109.092C788.358 108.592 787.345 100.199 786.22 90.4076L784.308 72.5226L783.408 93.505L782.509 114.487L775.085 121.182C770.923 124.979 767.324 127.976 766.874 127.976C766.311 127.976 764.737 114.787 762.037 86.0113C760.687 72.2228 760.575 71.8232 759.9 78.018C759.562 81.615 757.875 97.5017 756.188 113.488L753.038 142.464L746.065 151.457C730.767 171.24 722.106 191.223 719.182 213.605L718.507 218.9H730.43H742.24V209.108C742.24 202.913 743.028 196.419 744.49 191.023C747.189 181.032 749.327 177.135 748.427 183.929C747.639 189.325 744.49 217.102 744.49 218.101C744.49 218.6 778.122 218.9 819.29 218.9C860.458 218.9 894.09 218.6 894.09 218.101C894.09 217.701 892.853 212.905 891.278 207.41C889.816 201.914 887.454 190.923 886.216 182.93C884.867 174.937 883.179 165.844 882.392 162.647L880.93 156.952L886.441 149.158C889.366 144.962 892.29 141.365 892.74 141.265C894.765 140.765 912.199 168.642 917.036 180.133L919.848 186.927L917.149 198.617C915.686 205.112 914.224 212.306 913.774 214.604L912.987 218.9H964.616H1016.36L1016.24 201.615C1016.13 190.824 1016.69 181.531 1017.71 176.536C1019.28 168.742 1019.28 168.742 1020.97 171.54C1021.87 173.138 1024.12 177.934 1025.92 182.231C1028.84 189.425 1029.07 191.023 1029.07 204.412V218.9H1057.64H1086.32L1086.1 208.609C1085.98 199.516 1086.32 197.418 1089.58 188.925C1095.66 173.438 1107.69 153.855 1117.93 142.964L1120.29 140.466L1119.84 143.463C1119.5 145.062 1117.14 151.656 1114.55 157.951C1107.47 175.337 1101.96 196.419 1099.59 214.704L1099.03 218.9L1132.21 218.7L1165.51 218.401L1165.28 209.908C1165.17 205.112 1165.84 199.217 1166.74 196.419C1168.32 191.423 1168.32 191.523 1168.43 205.112L1168.54 218.9H1213.09H1257.74L1256.84 213.704C1254.14 195.52 1252.79 156.952 1254.93 156.952C1256.28 156.952 1266.85 175.237 1270.23 183.03C1274.39 192.922 1275.74 204.212 1273.71 210.907C1272.81 213.904 1272.03 217.002 1272.03 217.601C1272.03 218.6 1275.74 218.9 1286.65 218.9C1302.62 218.9 1302.17 219.2 1300.03 212.505C1297.56 204.612 1303.41 184.829 1310.72 176.436C1312.3 174.537 1312.41 174.937 1312.41 181.931C1312.41 189.025 1311.17 203.413 1309.6 214.104L1308.81 218.9H1355.71H1402.51L1401.83 214.604C1398.79 194.92 1395.64 181.931 1390.13 166.544C1388.22 161.148 1386.76 156.552 1386.98 156.352C1387.21 156.153 1390.36 160.949 1393.96 166.944C1401.49 179.733 1407.34 194.221 1409.14 204.912C1409.82 209.008 1410.72 213.904 1411.05 215.603L1411.62 218.9H1422.86H1434L1433.33 216.102C1430.74 206.51 1420.73 182.131 1415.55 172.939C1408.92 161.048 1398.23 146.661 1390.47 138.967L1385.63 134.171L1389.12 125.278C1396.66 106.294 1414.54 74.9206 1424.55 63.3303C1430.29 56.6359 1426.46 59.3336 1418.25 67.7266C1406.22 80.0163 1390.36 99.3002 1381.7 111.99C1377.53 117.985 1373.71 122.98 1373.37 122.98C1371.69 122.98 1366.62 117.085 1361.56 108.992C1353.8 96.9022 1345.14 85.212 1334.23 72.2228C1329.05 65.9281 1324.89 60.7324 1325.12 60.6325C1325.34 60.5326 1332.32 59.0339 1340.64 57.1355C1348.96 55.3369 1357.4 53.2387 1359.2 52.4394C1361.11 51.64 1361.56 51.2404 1360.32 51.64C1356.39 52.6392 1333.55 56.7358 1327.59 57.4352C1321.97 58.1346 1321.86 58.1346 1317.92 53.8382C1315.67 51.4402 1310.05 45.745 1305.32 41.0489C1300.6 36.3528 1296.77 32.1563 1296.77 31.7567C1296.77 30.6576 1306.22 15.9699 1312.75 7.07733C1319.83 -2.61456 1314.88 2.28134 1302.17 17.2688C1297.22 23.2638 1292.84 28.0598 1292.5 28.0598C1292.16 28.0598 1290.59 27.0606 1289.12 25.7617L1286.31 23.5635L1288.9 26.7609L1291.49 29.9582L1287.32 35.5535L1283.28 41.0489L1277.31 33.3553C1267.53 20.566 1249.98 0.0831909 1248.86 0.0831909C1248.52 0.0831909 1250.32 2.68102 1252.68 5.77843C1258.08 12.9724 1269.33 30.158 1274.73 39.8499L1278.78 47.0439L1273.15 55.5368C1270.11 60.2328 1266.18 66.4277 1264.6 69.2253C1262.69 72.5226 1257.07 78.4176 1249.08 85.5117C1242.22 91.5067 1234.01 99.8997 1230.86 104.096C1226.7 109.592 1224.67 111.59 1223.55 110.99C1222.42 110.291 1223.21 107.993 1227.26 100.299C1238.06 80.0163 1240.42 63.0305 1234.57 48.143C1231.08 39.4502 1230.86 39.8499 1243.12 35.4536C1247.28 33.9548 1250.43 32.556 1250.21 32.3562C1249.76 31.8566 1233.56 37.0522 1231.87 38.2513C1230.97 38.8508 1229.4 37.6517 1226.7 33.8549C1224.45 30.9574 1221.41 27.1605 1219.72 25.5619L1216.69 22.5644L1219.16 26.2613C1220.51 28.3595 1221.19 30.5577 1220.74 31.1572C1220.29 31.9565 1220.4 32.0564 1221.19 31.6568C1222.42 30.9574 1227.03 37.6517 1227.03 40.1497C1227.03 40.7492 1224.11 44.2462 1220.51 47.9431C1212.41 56.0364 1198.91 71.2237 1191.83 80.2161C1185.3 88.3094 1182.49 89.2086 1174.96 85.8114L1169.89 83.5134L1176.64 73.0222C1184.85 60.4327 1197.79 43.347 1201.39 40.3495C1202.85 39.1505 1207.46 36.9523 1211.62 35.5535C1215.79 34.0548 1219.05 32.6559 1218.82 32.3562C1218.49 32.1563 1214.1 33.3553 1208.93 35.1538C1201.73 37.5518 1198.24 39.4502 1194.41 42.9473C1188.34 48.4427 1169.33 68.9256 1165.39 74.3211L1162.47 78.2178L1160.56 75.8198C1159.43 74.6208 1157.97 70.7241 1157.18 67.1271C1154.6 54.5376 1157.97 39.5502 1166.07 28.4594L1169.67 23.5635L1165.39 27.76C1157.52 35.3537 1149.42 51.5401 1149.42 59.7333C1149.42 63.63 1148.86 63.8298 1145.82 60.7324C1143.35 58.2345 1144.14 60.1329 1147.4 64.2295C1148.64 65.7283 1149.42 68.6258 1149.42 71.2237C1149.42 73.5217 1150.32 78.4176 1151.45 82.0146C1154.48 91.3069 1152.91 94.1045 1148.3 87.51C1146.95 85.6116 1141.89 79.3169 1137.05 73.4218L1128.16 62.8307L1135.02 53.7383C1138.74 48.7425 1145.82 39.9498 1150.77 34.1547L1159.66 23.5635L1150.43 32.0564C1145.49 36.7525 1137.5 44.546 1132.78 49.342L1124.23 58.2345L1118.04 51.8399C1109.38 43.0472 1104.2 38.4511 1102.18 37.8516C1100.38 37.352 1108.37 24.0631 1119.84 8.27634C1123.1 3.68018 1125.35 0.183105 1124.79 0.582764C1124.11 0.882523 1117.14 8.77591 1109.38 18.0681C1101.51 27.4603 1094.64 35.0539 1094.19 35.0539C1093.86 35.0539 1091.61 34.3545 1089.47 33.5552C1083.28 31.2571 1082.95 31.9565 1088.91 34.3545L1094.31 36.5527L1088.23 45.0456C1084.97 49.7416 1080.13 56.7358 1077.66 60.6325L1073.05 67.7266L1063.94 65.4285C1058.88 64.1296 1049.65 62.1313 1043.35 61.0322C1035.7 59.7333 1031.43 58.4344 1030.42 57.3353C1029.63 56.3361 1025.13 50.1413 1020.41 43.5468C1015.79 36.9523 1006.12 24.6626 999.035 16.3696C985.762 0.582764 980.363 -4.61288 988.237 5.67851C998.473 19.1672 1020.18 55.237 1018.72 56.5359C1018.27 57.0355 997.123 53.3386 990.261 51.64C989.024 51.2404 989.699 51.74 991.836 52.5393C993.861 53.4385 1000.95 55.3369 1007.58 56.7358C1014.11 58.1346 1020.07 59.9331 1020.86 60.8324C1021.98 62.0314 1020.63 63.9298 1013.32 71.6233C1008.48 76.819 1003.65 82.0146 1002.75 83.2136C1001.62 84.5125 1000.61 85.0121 1000.05 84.5125C996.56 80.9155 991.949 75.0205 991.949 74.2211C991.949 73.6217 994.198 70.1246 997.01 66.4277C999.822 62.7308 1001.96 59.6334 1001.73 59.4335C1001.51 59.2337 998.585 62.0314 995.211 65.5284L989.137 72.023L982.05 65.3286L974.964 58.5343L980.701 66.3278C985.762 73.222 986.325 74.421 984.975 76.0196C984.188 77.0188 979.801 82.3144 975.189 87.8098L966.753 97.8014L958.542 92.8056C954.043 90.1078 950.106 87.51 949.768 87.0105C949.431 86.5109 950.556 85.212 952.13 84.1129C955.617 81.7149 954.83 81.3152 951.005 83.5134C948.081 85.212 948.868 85.8114 939.42 74.1212C938.295 72.7224 934.471 68.3261 930.871 64.2295C927.272 60.2328 924.46 56.7358 924.685 56.6359C924.91 56.436 928.734 55.3369 933.346 54.138C937.845 52.939 941.445 51.74 941.22 51.5401C940.995 51.3403 936.945 52.0397 932.334 53.1388C927.722 54.138 923.56 55.0372 923.223 55.0372C922.885 55.0372 920.411 52.839 917.823 50.0414L913.212 45.1455L922.21 34.3545L931.321 23.5635L921.085 33.0556L910.85 42.5477L901.851 34.1547C896.789 29.4586 893.078 25.2621 893.415 24.4628C894.427 22.0648 891.165 24.0631 889.141 27.1605L887.116 30.158L883.292 26.3612L879.355 22.5644L882.392 26.8608C885.429 31.0573 885.429 31.2571 883.517 33.8549C878.118 41.2487 872.719 54.8374 872.719 61.1321C872.719 63.5301 872.044 63.9298 865.52 65.4285C856.409 67.6267 845.161 72.6225 838.637 77.4185C835.937 79.4168 833.238 81.0155 832.563 81.0155C830.875 81.0155 826.714 76.819 814.003 62.5309C796.456 42.7475 790.72 38.0514 780.034 34.7542C775.085 33.2554 770.923 32.1563 770.698 32.3562C770.473 32.556 773.96 34.0548 778.234 35.5535C787.57 38.8508 790.495 41.4486 800.843 55.5368C810.854 69.2253 810.516 68.5259 807.929 67.6267C801.743 65.4285 783.071 61.6317 763.612 58.5343C751.576 56.5359 740.778 54.7375 739.766 54.4377C738.078 53.9381 738.528 52.6392 743.478 43.7466C750.001 32.2563 760.687 15.5702 767.211 6.57776C771.26 1.08235 771.373 0.882523 768.111 4.07985C761.924 10.1747 744.94 30.6576 737.066 41.6484C730.092 51.2404 729.192 52.1396 726.605 51.64C723.681 51.0405 723.681 51.0405 726.155 52.3395L728.743 53.5385L726.268 57.0355C725.031 58.9339 721.544 64.4293 718.732 69.1254L713.558 77.7182L713.445 65.6283C713.445 54.9373 713.108 52.7391 710.408 46.6442C707.259 39.4502 699.16 27.8599 694.886 24.5627C693.423 23.3637 694.211 25.0623 697.135 28.959C705.796 40.949 708.833 56.2362 705.234 70.0247C702.647 80.2161 692.524 96.5025 679.251 111.99C665.416 128.176 653.155 143.563 644.944 155.153C641.907 159.45 639.32 162.747 639.095 162.547C638.308 161.848 644.382 140.965 648.431 130.174C656.417 109.092 670.027 84.013 682.513 67.5267C689.712 58.0347 690.274 56.8357 685.55 61.5318C669.69 77.3186 655.405 94.0046 643.257 111.39C635.833 121.881 622.673 144.762 618.961 153.455L616.824 158.451L616.149 147.959C615.699 142.164 615.361 129.375 615.249 119.383C615.249 109.492 614.799 95.1037 614.349 87.4101L613.562 73.5217L608.275 119.983C605.351 145.561 602.876 166.644 602.876 166.844C602.764 167.043 601.864 166.544 600.851 165.745C599.727 164.845 596.802 163.247 594.215 162.148C587.804 159.25 583.192 152.855 583.979 147.86C584.654 143.463 589.153 134.97 591.178 134.271C591.965 133.971 592.64 133.372 592.64 132.772C592.64 131.573 587.241 134.97 582.854 138.967L579.48 141.964L578.13 131.173L576.78 120.383L580.267 112.389C582.179 108.093 586.791 99.1003 590.503 92.4059C596.577 81.3152 597.477 80.2161 601.639 78.5175C604.113 77.5184 605.913 76.5192 605.688 76.3194C605.463 76.0196 604.113 76.4193 602.764 77.0188C601.414 77.6183 600.064 77.9181 599.727 77.6183C598.264 76.3194 623.348 42.6476 628.072 39.6501C629.872 38.3512 634.371 36.3528 637.97 35.0539C641.57 33.8549 644.269 32.6559 644.044 32.3562C643.369 31.8566 625.372 38.0514 624.585 39.1505C624.247 39.6501 623.46 40.0497 622.785 40.0497C622.223 40.0497 624.36 37.0522 627.622 33.2554C630.771 29.5585 633.921 25.9615 634.596 25.2621C635.158 24.6626 635.383 24.0631 635.046 24.0631C634.146 24.0631 607.938 50.0414 598.714 60.033C593.99 65.2287 586.566 73.9214 582.292 79.217C577.905 84.6125 574.081 89.0088 573.518 89.0088C572.281 89.0088 552.372 98.8006 546.86 102.198C544.273 103.696 541.911 104.995 541.574 104.995C541.349 104.995 543.036 101.099 545.286 96.2028C547.648 91.4068 550.46 84.5125 551.472 80.9155C553.834 72.5226 553.834 58.0347 551.472 50.9406C548.997 43.347 542.474 32.7558 537.299 27.76L533.025 23.5635L536.625 28.4594C548.323 44.4461 549.447 64.7291 539.662 83.0138C535.275 91.4068 528.638 100.999 527.401 100.999C526.501 100.999 516.265 88.1095 512.329 82.3144C511.879 81.515 513.228 80.3161 516.153 79.0171C518.628 77.9181 520.652 76.819 520.652 76.5192C520.652 76.0196 516.04 77.5184 512.779 79.0171C510.979 79.8165 509.742 78.8173 503.668 71.7232C499.843 67.227 496.244 63.0305 495.794 62.431C495.119 61.7316 498.831 60.5326 507.492 58.6342C522.677 55.4369 535.612 52.0397 535.05 51.5401C534.825 51.3403 530.888 51.9398 526.276 53.0389C521.665 54.038 513.003 55.6367 507.154 56.5359C501.305 57.4352 495.681 58.3344 494.669 58.6342C493.432 58.9339 489.607 55.8365 482.634 48.8424C477.122 43.1472 468.911 35.1538 464.412 31.0573L456.425 23.5635L463.624 32.0564C467.561 36.7525 474.197 44.9456 478.359 50.2412L485.783 59.8332L479.372 61.0322C475.772 61.6317 471.16 62.5309 469.248 63.0305C464.299 64.1296 454.288 61.8315 451.701 58.834C450.576 57.5351 446.64 52.1396 442.815 46.7441L436.066 36.9523L439.103 33.0556C440.791 30.8574 442.928 28.5594 443.715 27.9599C444.615 27.3604 445.29 26.3612 445.29 25.7617C445.29 25.1622 442.928 27.0606 440.003 29.9582L434.604 35.2538L427.293 25.9615C419.307 15.87 404.797 -0.616226 404.797 0.482849C404.797 0.882523 407.271 4.37959 410.196 8.37625C413.233 12.3729 418.857 20.666 422.794 26.8608C431.005 39.8499 431.005 38.7508 420.769 48.7425L414.357 55.0372L405.921 53.1388C396.923 51.1405 393.661 51.1405 401.31 53.1388C408.508 55.0372 405.921 55.3369 398.048 53.5385C394.223 52.6392 390.849 52.1396 390.511 52.4394C390.174 52.6392 392.199 53.4385 394.786 54.038C397.485 54.6375 402.434 55.8365 405.696 56.7358L411.545 58.2345L405.696 64.829C402.547 68.5259 399.622 71.7232 399.397 72.023C399.173 72.3227 397.598 70.9239 395.911 69.0255C394.336 67.1271 389.049 61.4319 384.212 56.2362L375.439 46.944L377.689 44.2462C381.176 39.8499 383.538 38.3512 391.636 35.5535C395.798 34.0548 399.06 32.6559 398.835 32.4561C397.823 31.4569 379.488 38.551 376.226 41.0489L372.739 43.8466L369.253 41.0489C365.878 38.4511 347.769 31.4569 346.756 32.3562C346.531 32.556 349.906 34.0548 354.18 35.5535C364.191 39.1505 372.514 46.5443 368.803 48.5426C366.553 49.7416 346.194 73.0222 337.87 84.013C333.034 90.3077 328.647 95.903 328.197 96.4026C327.747 96.8023 325.61 93.8048 323.36 89.6083L319.423 81.9147L324.035 75.2203C326.51 71.5234 330.109 66.6275 331.909 64.2295C337.533 56.9356 334.946 58.6342 326.06 68.0263C321.448 72.9222 317.399 76.9189 317.061 77.0188C316.724 77.0188 314.587 73.7216 312.337 69.7249C305.813 58.5343 294.115 41.6484 284.217 29.0589C275.106 17.6685 259.808 0.0831909 258.908 0.0831909C258.683 0.0831909 260.483 2.68102 262.845 5.77843C273.756 20.2663 288.154 44.2462 296.252 61.5318C301.651 73.1221 306.938 86.0113 306.938 87.6099C306.938 88.3094 304.126 92.5059 300.751 96.9022C297.264 101.298 291.303 109.592 287.366 115.387L280.28 125.878L268.357 111.69C250.36 90.4076 243.273 77.1187 241.136 61.4319L240.349 55.237L246.198 53.5385C249.347 52.6392 251.71 51.64 251.485 51.4402C251.26 51.1405 249.685 51.4402 247.998 52.0397C246.311 52.5393 243.948 53.0389 242.824 53.0389C240.911 53.0389 240.911 52.7391 242.374 46.7441C244.398 39.3503 248.223 31.4569 252.609 26.3612C255.197 23.1639 255.309 22.8641 253.172 24.5627C248.673 27.9599 240.574 39.6501 237.537 47.2437C235.85 51.2404 234.5 54.6375 234.5 54.7375C234.275 55.1371 196.256 61.0322 195.356 60.8324C193.444 60.2328 215.828 21.6651 225.951 8.07649C234.387 -3.21405 233.488 -2.71448 222.352 9.875ZM900.276 35.7533C904.326 40.4494 907.588 44.7458 907.588 45.3453C907.588 45.8449 905.901 48.0431 903.763 50.0414L899.939 53.8382L897.464 47.8432C896.115 44.546 893.528 39.5502 891.728 36.8524C889.928 34.1547 888.466 31.5569 888.466 30.9574C888.466 29.3587 891.165 26.1614 892.065 26.6609C892.628 26.9607 896.34 31.0573 900.276 35.7533ZM890.716 42.0481C891.953 45.6451 893.078 50.9406 893.19 53.9381C893.528 59.9331 893.753 59.7333 883.742 61.4319L879.467 62.1313V58.2345C879.467 52.7391 881.155 45.4452 883.967 38.6509C886.891 31.9565 887.341 32.2563 890.716 42.0481ZM1307.68 49.2421C1311.85 54.6375 1314.99 59.1338 1314.66 59.3336C1314.43 59.5334 1310.5 60.3328 1306 61.232L1297.9 62.7308L1292.84 54.9373L1287.77 47.1438L1291.37 40.5493L1295.09 33.9548L1297.67 36.7525C1299.02 38.2513 1303.63 43.9465 1307.68 49.2421ZM1111.63 52.0397C1115.68 57.4352 1119.05 62.431 1119.05 62.9306C1119.05 63.5301 1115.9 67.7266 1112.08 72.3227C1108.14 76.9189 1104.2 81.7149 1103.19 83.0138L1101.51 85.4118L1094.08 79.8165C1090.03 76.7191 1085.87 73.8215 1084.86 73.3219C1083.17 72.5226 1083.51 71.3236 1087.9 61.9314C1090.59 56.2362 1094.53 48.6425 1096.44 45.2454C1099.93 39.1505 1100.16 38.9507 1102.18 40.5493C1103.31 41.4486 1107.58 46.6442 1111.63 52.0397ZM151.601 50.3411C154.976 54.8374 159.363 60.9323 161.5 63.7299L165.212 69.0255L159.812 71.4235C156.775 72.8223 152.726 75.1204 150.701 76.6191C148.677 78.018 146.877 79.0171 146.652 78.8173C145.302 77.6183 141.59 62.2312 141.59 58.0347C141.59 52.839 143.728 42.0481 144.852 42.0481C145.19 42.0481 148.227 45.745 151.601 50.3411ZM436.291 50.2412C438.653 54.8374 440.566 58.6342 440.341 58.7341C440.228 58.9339 435.841 58.3344 430.555 57.5351C425.381 56.7358 420.994 56.0364 420.769 56.0364C420.431 56.0364 431.117 42.148 431.567 42.0481C431.792 42.0481 433.929 45.745 436.291 50.2412ZM1230.07 60.5326C1229.4 71.6233 1225.91 80.7157 1217.36 93.7048C1213.99 98.8006 1210.95 102.997 1210.61 102.997C1210.39 102.997 1206.68 101.199 1202.4 98.9005L1194.75 94.9038L1198.8 88.0096C1202.29 82.0146 1203.53 80.8156 1208.14 78.9172C1214.32 76.3194 1214.77 75.2203 1208.7 77.5184C1206.34 78.3177 1204.54 78.8173 1204.54 78.5175C1204.54 77.3186 1220.85 53.9381 1225.8 48.143L1228.61 44.7458L1229.62 48.143C1230.18 50.0414 1230.41 55.5368 1230.07 60.5326ZM913.999 52.5393C916.249 55.6367 916.361 55.9364 914.562 56.436C910.4 57.4352 904.213 58.1346 904.213 57.5351C904.213 56.6359 910.062 49.0422 910.85 49.0422C911.187 49.0422 912.649 50.6409 913.999 52.5393ZM385.225 67.7266L393.211 79.4168L386.35 88.6091L379.488 97.8014L378.926 85.7115C378.251 71.7232 377.464 73.4218 375.439 93.0054C374.764 99.8997 373.527 106.594 372.739 107.993C371.052 110.791 353.393 126.577 352.718 125.878C352.043 125.278 348.556 94.5042 348.556 89.6083C348.556 85.8114 354.967 74.9206 367.228 57.8349L372.514 50.541L374.877 53.3386C376.226 54.8374 380.838 61.3319 385.225 67.7266ZM1285.86 61.232L1287.55 64.9289L1282.49 66.4277C1279.79 67.227 1277.65 67.6267 1277.88 67.227C1278.1 66.8273 1279.23 64.1296 1280.35 61.232C1282.83 55.6367 1283.28 55.6367 1285.86 61.232ZM234.5 67.3269C234.725 84.6125 240.911 98.2011 260.821 124.879L272.181 140.166L267.12 150.757C264.42 156.652 261.72 162.647 261.383 164.146C260.933 165.745 260.258 166.944 259.808 166.944C259.471 166.944 256.884 163.546 254.184 159.45C251.372 155.353 246.873 150.058 244.173 147.76C241.474 145.362 239.337 143.863 239.674 144.462C239.899 144.962 242.149 149.258 244.736 153.954C251.147 165.944 255.646 178.434 254.747 182.031C254.409 183.73 252.497 188.226 250.472 192.222C248.56 196.219 246.311 201.914 245.636 204.912L244.286 210.407L242.936 202.913C236.3 167.743 220.215 130.674 197.719 98.8006C192.432 91.4068 191.757 89.8081 191.195 83.3135C190.295 74.421 188.833 72.6225 188.833 80.6158C188.833 86.0113 188.72 86.311 187.145 84.3127C185.796 82.6141 185.796 81.615 186.808 78.9172C187.483 77.0188 188.495 75.1204 188.945 74.6208C189.507 74.0213 189.957 72.7224 189.957 71.5234C189.957 66.9272 192.544 65.7283 211.554 61.4319C221.565 59.1338 230.901 57.1355 232.138 57.1355C234.275 57.0355 234.387 57.7349 234.5 67.3269ZM920.411 61.3319C929.297 74.6208 937.958 88.6091 937.958 89.6083C937.958 90.3077 934.583 93.0054 930.421 95.6033C926.147 98.2011 919.286 102.797 915.124 105.695C906.238 111.99 906.913 112.189 899.039 101.898L893.753 95.0038L896.789 86.1112C898.477 81.1154 900.164 73.5217 900.501 69.2253L901.176 61.3319L908.038 59.8332C917.711 57.635 918.048 57.635 920.411 61.3319ZM443.715 65.3286C443.828 65.4285 444.165 66.4277 444.615 67.5267C445.177 69.2253 444.053 70.3244 438.091 73.8215C434.154 76.1196 427.18 81.1154 422.456 85.0121L414.02 92.0063L412.333 89.6083C410.646 87.3102 410.646 87.1104 414.695 84.6125C419.532 81.615 418.519 81.1154 413.233 84.013L409.633 86.0113L407.159 83.0138C404.347 79.6166 404.122 80.3161 412.783 67.3269L418.294 59.2337L430.892 62.1313C437.754 63.7299 443.49 65.1288 443.715 65.3286ZM1046.5 65.5284C1055.84 67.9264 1069.56 72.8223 1069.56 73.7216C1069.56 73.9214 1067.65 77.5184 1065.29 81.8148C1062.81 86.0113 1059.77 92.1062 1058.31 95.2036C1056.85 98.4009 1055.28 100.999 1054.94 100.999C1054.49 100.999 1053.25 98.9005 1052.13 96.2028C1051 93.6049 1046.5 85.212 1042.12 77.5184C1037.73 69.8248 1034.02 63.2303 1033.79 62.7308C1033.57 62.3311 1034.02 62.2312 1034.92 62.5309C1035.7 62.8307 1040.99 64.1296 1046.5 65.5284ZM1325.12 73.8215C1332.43 85.212 1341.77 101.398 1341.77 102.497C1341.77 102.897 1340.42 102.298 1338.73 101.199C1336.93 100.199 1330.4 96.7023 1323.99 93.6049L1312.41 87.9097L1306.33 77.1187L1300.26 66.3278L1308.36 64.2295C1312.86 63.1304 1316.68 62.1313 1317.02 62.1313C1317.36 62.0314 1320.96 67.3269 1325.12 73.8215ZM491.295 68.1263C493.207 70.9239 494.782 73.3219 494.782 73.6217C494.782 73.8215 491.295 72.4227 486.908 70.5242C482.634 68.6258 478.359 67.0272 477.347 67.0272C472.173 67.0272 479.147 64.0297 486.458 63.1304C487.133 63.1304 489.27 65.3286 491.295 68.1263ZM887.116 68.5259C883.067 73.4218 881.717 74.0213 881.717 71.1237C881.717 70.0247 881.38 68.5259 881.042 67.6267C880.592 66.5276 881.492 65.8282 884.192 65.1288C890.603 63.5301 890.94 63.9298 887.116 68.5259ZM1030.3 81.615C1034.8 93.0054 1041.44 114.787 1041.44 117.885C1041.44 118.884 1039.19 121.482 1036.49 123.78L1031.54 127.976L1026.93 120.482C1024.34 116.386 1018.49 107.993 1013.88 101.898C1009.27 95.7032 1005.45 90.4076 1005.45 90.0079C1005.45 89.6083 1009.38 83.5134 1014.11 76.4193L1022.77 63.5301L1024.34 67.0272C1025.24 68.9256 1027.94 75.5201 1030.3 81.615ZM873.731 75.9197L875.081 82.814L868.669 91.4068C864.62 96.8023 861.808 99.6998 861.02 99.2002C853.484 95.0038 842.349 87.8098 842.349 87.0105C842.349 84.2128 866.42 69.1254 871.144 69.0255C871.819 69.0255 872.943 72.1229 873.731 75.9197ZM1129.74 78.018C1131.99 81.615 1136.04 88.6091 1138.74 93.7048L1143.8 102.897L1141.21 106.894C1139.07 110.191 1130.64 116.985 1128.73 116.985C1128.5 116.985 1126.93 114.887 1125.24 112.189C1123.55 109.592 1119.39 104.196 1116.02 100.099L1109.83 92.8056L1112.42 87.8098C1114.55 83.7132 1116.13 82.3144 1121.3 80.0163C1128.05 76.819 1128.39 76.1196 1122.09 78.5175C1119.84 79.3169 1117.7 80.0163 1117.37 80.0163C1117.14 80.0163 1118.38 77.7182 1120.29 74.9206C1122.31 72.1229 1124.23 70.2245 1124.79 70.7241C1125.24 71.1237 1127.49 74.421 1129.74 78.018ZM1292.05 74.9206C1292.95 77.2186 1293.4 79.4168 1293.06 79.6166C1292.72 79.9164 1290.02 79.217 1287.1 78.1179C1279.34 75.0205 1279.9 76.2195 1287.89 79.6166C1292.5 81.515 1295.2 83.3135 1295.87 85.0121C1300.26 94.8039 1308.25 124.879 1309.82 137.668L1310.5 143.863L1305.77 148.659C1303.18 151.257 1297.67 158.551 1293.62 164.645C1289.46 170.84 1285.86 175.936 1285.52 175.936C1283.95 175.936 1282.04 168.242 1278.89 149.358C1276.98 138.268 1275.4 128.076 1275.4 126.577C1275.4 125.179 1274.95 123.98 1274.39 123.98C1273.26 123.98 1272.25 130.074 1271.24 143.064L1270.56 152.855L1264.04 145.162C1259.43 139.966 1257.4 136.669 1257.4 134.671C1257.4 126.577 1269.21 84.9122 1273.15 79.217C1275.18 76.2195 1287.1 69.8248 1289.35 70.4243C1290.02 70.5242 1291.15 72.5226 1292.05 74.9206ZM471.048 74.9206C473.86 76.6191 478.247 79.7166 480.609 81.9147C484.883 85.8114 484.996 86.1112 482.971 87.4101C481.734 88.2094 480.271 88.6091 479.484 88.3094C477.909 87.8098 463.962 72.023 465.086 72.023C465.536 72.023 468.236 73.3219 471.048 74.9206ZM463.849 77.6183C465.536 80.1162 466.549 82.4143 466.324 82.714C465.986 83.0138 464.412 80.9155 462.837 78.1179C459.125 71.8232 459.8 71.4235 463.849 77.6183ZM170.611 77.4185C171.623 79.5167 171.061 81.515 166.449 91.0071L161.05 102.098L158.238 98.301C152.389 90.4076 151.601 88.5092 153.513 86.2111C155.426 83.8131 167.236 75.0205 168.473 75.0205C168.923 75.0205 169.936 76.1196 170.611 77.4185ZM453.726 90.4076C456.763 99.3002 457.438 102.597 456.425 103.597C453.726 106.594 432.467 120.283 432.13 119.383C431.905 118.784 429.542 114.887 426.843 110.691L421.894 102.897L428.418 95.2036C436.179 86.1112 447.314 76.4193 448.664 77.6183C449.227 78.1179 451.476 83.8131 453.726 90.4076ZM990.036 99.1003C986.437 103.896 983.063 107.893 982.613 107.893C982.163 107.993 980.026 106.794 977.889 105.295L974.177 102.597L977.551 96.6024C979.463 93.2053 982.725 87.7099 984.862 84.2128L988.912 77.9181L992.736 84.1129L996.56 90.3077L990.036 99.1003ZM1086.32 85.7115C1088.91 88.4093 1090.93 90.7074 1090.93 91.0071C1090.93 91.4068 1077.21 98.5008 1073.84 99.7997C1072.94 100.199 1075.3 92.1062 1078.11 85.212C1079.12 82.9139 1080.25 81.0155 1080.81 81.0155C1081.37 81.0155 1083.85 83.1137 1086.32 85.7115ZM471.723 90.0079C472.735 91.8064 472.96 93.1053 472.285 93.505C471.498 94.0046 467.786 88.2094 467.786 86.311C467.786 85.212 470.261 87.4101 471.723 90.0079ZM487.47 89.1087C487.02 89.6083 486.008 90.0079 484.996 90.0079C483.533 90.0079 483.533 89.7082 484.658 88.5092C486.12 87.0105 488.595 87.4101 487.47 89.1087ZM1176.42 90.6074C1176.42 91.9063 1172.93 90.6074 1171.92 88.9089C1170.68 86.9105 1170.68 86.9105 1173.49 88.5092C1175.07 89.5084 1176.42 90.4076 1176.42 90.6074ZM399.735 92.1062C398.61 93.6049 396.923 93.1053 397.598 91.5067C398.048 90.7074 398.723 90.3077 399.285 90.6074C399.847 90.9072 400.072 91.6066 399.735 92.1062ZM492.644 93.7048C494.107 95.2036 493.994 95.2036 491.745 94.1045C489.045 92.9055 488.483 92.0063 490.17 92.0063C490.732 92.0063 491.857 92.7057 492.644 93.7048ZM859.221 103.896C859.221 104.196 858.771 104.995 858.321 105.695C857.758 106.494 855.171 104.296 850.897 99.3002L844.373 91.7065L851.797 97.5017C855.846 100.599 859.221 103.497 859.221 103.896ZM344.619 124.679C344.169 130.874 343.494 135.969 343.157 135.969C342.482 135.969 337.308 122.081 335.396 115.187C334.946 113.688 336.52 109.392 339.67 102.697L344.619 92.6058L344.957 102.997C345.182 108.792 344.957 118.584 344.619 124.679ZM814.453 99.2002C811.529 102.697 807.479 107.793 805.455 110.491C801.518 116.086 792.857 132.173 792.857 133.871C792.857 134.471 792.407 134.97 791.732 134.97C791.17 134.97 790.607 133.072 790.607 130.674C790.607 128.376 790.27 124.779 789.932 122.781C789.257 119.084 789.37 118.884 803.768 105.995C811.866 98.9005 818.728 93.0054 819.177 93.0054C819.515 93.0054 817.49 95.8031 814.453 99.2002ZM1180.69 95.0038C1179.23 97.0021 1177.54 97.7015 1177.54 96.2028C1177.54 95.2036 1180.02 93.0054 1181.14 93.0054C1181.7 93.0054 1181.48 93.9047 1180.69 95.0038ZM403.559 97.8014L405.809 101.698L401.985 106.794C397.935 111.99 387.699 129.775 386.237 133.771C385.675 135.67 385.225 135.87 383.875 134.87C381.513 133.172 380.726 134.471 382.638 137.168C383.988 139.167 383.875 140.066 382.188 144.462L380.163 149.458L380.276 139.167C380.276 129.475 380.613 128.176 385.112 117.585C387.699 111.39 390.511 105.195 391.299 103.896C392.536 101.798 400.185 94.0046 401.085 94.0046C401.197 94.0046 402.322 95.7032 403.559 97.8014ZM938.52 96.7023C938.183 98.301 936.945 109.192 935.596 120.982C934.358 132.772 933.121 142.564 933.009 142.764C932.784 142.864 931.209 141.065 929.522 138.767C927.834 136.369 923.11 130.474 919.061 125.678L911.75 116.786L924.572 105.395C931.659 99.2002 937.733 94.0046 938.183 94.0046C938.633 94.0046 938.745 95.2036 938.52 96.7023ZM963.828 100.799C963.828 101.199 963.378 102.098 962.816 102.797C962.141 103.796 960.904 102.697 958.317 98.9005L954.605 93.7048L959.217 96.9022C961.804 98.7007 963.828 100.499 963.828 100.799ZM108.296 102.398C114.145 113.788 114.145 113.288 109.533 121.482L105.371 128.975L94.9107 121.182C89.1742 116.985 84.3375 113.189 84.3375 112.789C84.225 112.089 103.347 95.0038 104.134 95.0038C104.359 95.0038 106.271 98.301 108.296 102.398ZM1088.46 103.197C1085.31 107.793 1079.57 117.185 1075.75 124.279C1071.81 131.273 1068.32 136.669 1068.1 136.169C1066.19 133.472 1066.07 127.077 1067.99 119.383C1069.79 111.29 1070.24 110.591 1075.07 106.994C1081.03 102.497 1092.28 95.2036 1093.41 95.1037C1093.74 95.0038 1091.61 98.7007 1088.46 103.197ZM1323.54 99.1003C1327.03 101.298 1334.12 106.094 1339.18 109.791L1348.51 116.486L1352.34 126.977C1354.48 132.772 1356.05 137.668 1355.83 137.868C1355.49 138.068 1353.58 136.869 1351.33 135.07C1346.15 131.074 1345.48 131.173 1349.08 135.37C1353.46 140.466 1355.6 147.26 1354.93 153.855C1354.36 159.25 1352.23 164.945 1350.76 164.945C1350.43 164.945 1348.96 162.947 1347.73 160.549C1346.38 158.151 1343 153.755 1340.3 150.757C1336.14 146.161 1334.68 143.363 1331.75 134.371C1328.49 124.079 1321.74 106.994 1317.69 98.7007C1316.68 96.7023 1316.12 95.0038 1316.57 95.0038C1316.91 95.0038 1320.06 96.8023 1323.54 99.1003ZM185.346 103.896C189.058 111.79 189.058 111.89 188.27 122.481C187.82 128.276 187.37 132.972 187.145 132.772C182.871 128.576 174.323 117.085 174.66 115.986C174.885 115.187 176.235 110.291 177.697 105.195C179.047 100.199 180.509 96.0029 180.846 96.0029C181.184 96.0029 183.209 99.5999 185.346 103.896ZM494.782 101.798C501.305 106.194 504.005 108.892 506.817 113.488C508.842 116.786 510.529 119.983 510.529 120.582C510.529 122.481 505.917 126.677 505.355 125.278C504.23 122.98 490.057 102.497 487.358 99.2002C485.783 97.5017 484.996 96.0029 485.446 96.0029C485.896 96.1028 490.17 98.7007 494.782 101.798ZM565.307 102.098C563.283 105.095 559.796 110.291 557.659 113.688C555.634 117.185 553.609 119.983 553.272 119.983C552.934 119.983 550.685 118.284 548.435 116.186L544.161 112.289L551.247 107.393C559.458 101.598 568.344 96.1028 568.794 96.5025C569.019 96.7023 567.444 99.2002 565.307 102.098ZM147.327 104.196C149.239 107.693 151.826 111.69 152.951 113.089C155.201 115.986 155.313 115.587 146.652 139.467L145.19 143.463L142.378 137.968C140.803 134.97 137.429 129.075 134.842 124.979L130.23 117.485L132.592 113.089C135.292 108.093 142.378 98.0013 143.278 98.0013C143.503 98.0013 145.415 100.799 147.327 104.196ZM313.349 106.694L315.599 115.487L311.1 123.48C308.625 127.876 305.026 134.77 303.001 138.667L299.402 145.961L295.915 142.064L292.315 138.068L295.802 128.775C297.827 123.68 301.314 115.387 303.788 110.491C306.263 105.495 308.513 100.699 308.85 99.6998C309.975 96.4026 311.1 98.1012 313.349 106.694ZM947.856 108.093L952.355 117.785L947.856 125.079C945.381 129.175 943.132 132.672 942.907 132.872C942.682 133.072 942.457 125.278 942.457 115.487C942.457 105.695 942.682 97.9013 942.907 98.1012C943.132 98.301 945.381 102.797 947.856 108.093ZM1007.47 111.19C1014.33 126.178 1019.28 138.967 1018.49 139.666C1018.16 139.966 1016.47 138.667 1014.78 136.869C1013.1 134.97 1007.36 129.375 1001.96 124.479L992.061 115.487L996.11 107.194C998.248 102.697 1000.5 99.0004 1000.95 99.0004C1001.4 99.0004 1004.32 104.496 1007.47 111.19ZM487.47 121.482C494.107 137.468 494.894 140.366 492.869 142.964C491.182 145.162 490.845 144.762 486.795 132.372C484.433 125.278 480.834 115.387 478.697 110.291C476.11 104.196 475.21 100.999 476.11 100.699C477.459 100.299 481.846 108.193 487.47 121.482ZM1200.04 104.796C1202.85 106.794 1205.33 108.492 1205.44 108.592C1206 108.992 1196.55 119.983 1195.65 119.983C1195.31 119.983 1193.29 117.585 1191.27 114.587L1187.67 109.192L1189.92 104.496C1192.39 99.4001 1192.17 99.4001 1200.04 104.796ZM839.424 123.28L842.686 131.773L837.624 142.764C833.463 151.556 813.441 182.531 812.429 181.631C812.316 181.531 813.103 177.335 814.341 172.439C816.928 161.548 821.09 150.457 825.476 142.464C827.276 139.167 828.513 136.369 828.288 136.169C827.726 135.67 817.153 147.16 811.979 153.954C805.342 162.647 803.768 162.048 806.355 151.556C810.291 135.57 818.278 117.685 826.939 104.995L829.301 101.598L832.788 108.193C834.587 111.89 837.624 118.684 839.424 123.28ZM1166.97 113.688C1166.41 114.188 1161.8 107.194 1161.8 105.695C1161.8 104.995 1163.15 106.494 1164.61 108.892C1166.18 111.29 1167.31 113.488 1166.97 113.688ZM1110.05 117.285L1115.45 127.277L1107.92 134.87C1098.58 144.362 1092.28 151.656 1087 159.45L1082.95 165.445L1083.62 161.448C1085.53 151.856 1092.39 130.174 1096.67 120.283C1099.14 114.388 1101.51 108.692 1101.84 107.793C1102.86 104.895 1104.43 106.794 1110.05 117.285ZM894.99 121.781C893.415 123.38 893.078 123.28 886.891 118.284L881.83 113.988L884.192 110.391L886.554 106.894L891.39 113.688C894.99 118.784 895.89 120.782 894.99 121.781ZM976.651 117.485C975.526 119.483 974.177 121.382 973.727 121.582C973.277 121.881 971.927 120.383 970.69 118.284C968.778 114.787 968.665 114.088 970.127 110.99L971.815 107.593L975.301 110.791L978.901 113.888L976.651 117.485ZM462.049 118.684C465.199 133.771 466.661 144.263 467.786 159.849L468.911 176.236L465.311 183.13L461.825 190.024L458.113 178.234C453.613 163.646 447.652 148.559 442.59 138.667L438.766 131.074L441.128 128.276C443.828 125.079 458.9 112.089 460.025 111.99C460.362 111.99 461.262 114.987 462.049 118.684ZM1240.53 118.484C1239.86 119.983 1239.07 120.982 1238.73 120.782C1238.51 120.482 1238.84 119.084 1239.52 117.585C1241.32 114.188 1242.11 114.887 1240.53 118.484ZM412.895 137.768C409.858 140.865 405.809 145.462 403.897 147.86C401.872 150.258 400.297 151.756 400.297 151.157C400.297 147.66 409.633 122.581 412.333 118.684C412.783 118.084 414.245 120.782 415.82 124.779L418.519 131.973L412.895 137.768ZM545.511 126.477C546.86 128.176 545.623 127.477 542.699 124.679C539.887 121.981 537.524 119.283 537.524 118.684C537.637 117.385 541.686 121.482 545.511 126.477ZM1218.82 119.084C1219.84 119.983 1219.5 121.382 1217.59 124.879C1216.12 127.377 1213.76 132.273 1212.41 135.67C1211.06 139.167 1209.37 141.665 1208.81 141.365C1208.25 140.965 1206.79 139.367 1205.66 137.768L1203.64 134.671L1209.82 126.378C1213.31 121.781 1216.46 117.985 1216.91 117.985C1217.25 117.985 1218.15 118.484 1218.82 119.084ZM883.967 128.975C884.642 130.074 883.517 131.873 880.142 135.37L875.418 140.266L873.056 134.671L870.806 129.175L873.731 124.979L876.655 120.882L879.805 124.179C881.605 125.978 883.404 128.176 883.967 128.975ZM1154.26 126.777C1155.27 129.875 1156.17 132.872 1156.17 133.472C1156.06 134.671 1146.5 155.853 1145.71 156.552C1144.7 157.551 1142.45 146.86 1143.12 144.163C1144.92 137.668 1151 120.982 1151.56 120.982C1151.9 120.982 1153.13 123.58 1154.26 126.777ZM88.1619 129.875C100.76 141.765 100.197 140.666 97.8353 148.059C95.4731 155.153 96.148 155.553 91.1989 144.462C89.9616 141.665 87.037 135.77 84.5625 131.173C82.0879 126.677 80.2882 122.98 80.5131 122.98C80.7381 122.98 84.225 126.078 88.1619 129.875ZM575.093 130.174C574.643 133.072 573.968 136.369 573.518 137.468C572.731 139.167 572.506 139.267 571.831 137.868C571.156 136.269 574.193 124.979 575.318 124.979C575.656 124.979 575.543 127.377 575.093 130.174ZM999.035 138.068L1008.93 151.157L1006.91 153.855C1005.9 155.253 1002.86 159.75 1000.16 163.846C997.46 168.143 995.211 170.64 994.873 169.841C994.648 169.042 993.748 166.644 993.073 164.446C992.286 162.247 989.699 155.753 987.224 150.058L982.613 139.666L985.2 132.372C986.662 128.276 988.124 124.979 988.462 124.979C988.799 124.979 993.636 130.874 999.035 138.068ZM781.721 155.353L780.709 176.835L776.997 182.63L773.173 188.426L770.81 167.443L768.448 146.461L775.31 137.069C783.633 125.578 783.296 124.679 781.721 155.353ZM903.876 130.674C904.551 131.673 907.7 135.87 910.962 139.966C916.586 147.26 916.136 146.96 905.788 136.269C901.176 131.373 899.714 128.975 901.739 128.975C902.189 128.975 903.088 129.775 903.876 130.674ZM1183.17 135.47C1183.17 136.169 1182.49 137.268 1181.59 137.868C1180.35 138.767 1179.79 138.467 1179.01 136.269C1178.44 134.77 1178.22 132.572 1178.44 131.473C1178.89 129.675 1179.01 129.675 1181.03 131.873C1182.27 133.172 1183.17 134.77 1183.17 135.47ZM200.981 143.663C202.893 149.858 204.243 154.954 204.13 154.954C203.905 154.954 202.555 153.255 200.981 151.157C198.843 148.359 197.944 145.462 197.381 139.467C196.931 135.07 196.819 131.773 197.156 131.973C197.381 132.273 199.181 137.568 200.981 143.663ZM1232.77 141.065C1231.53 145.162 1229.73 152.056 1228.61 156.352C1227.26 162.048 1226.47 163.746 1225.68 162.647C1224.67 160.849 1226.7 150.857 1230.63 139.167C1233.78 129.575 1235.7 131.273 1232.77 141.065ZM1040.99 138.567C1039.87 141.565 1039.19 142.064 1038.63 140.765C1038.18 139.866 1038.74 137.968 1039.87 136.469C1042.45 132.972 1042.9 133.771 1040.99 138.567ZM122.469 140.666C122.469 145.661 122.244 146.161 120.894 144.962C119.544 143.763 119.432 142.664 120.556 139.167C121.231 136.869 121.906 134.97 122.131 134.97C122.356 134.97 122.469 137.568 122.469 140.666ZM516.265 142.064C515.253 144.263 515.141 144.263 515.141 142.364C515.028 141.265 515.366 139.966 515.816 139.666C517.165 138.467 517.39 139.666 516.265 142.064ZM955.955 152.056C954.717 156.153 954.043 157.651 954.38 155.453C955.167 150.058 957.08 143.663 957.754 144.163C957.979 144.462 957.192 147.959 955.955 152.056ZM1304.76 170.84C1300.37 174.537 1296.77 177.335 1296.77 176.935C1296.77 175.137 1302.62 161.548 1306.33 154.454L1310.61 146.461L1311.73 155.153L1312.75 163.946L1304.76 170.84ZM419.419 170.64C415.032 174.237 410.083 179.233 408.508 181.631C406.934 184.029 405.471 185.828 405.246 185.628C404.009 184.629 418.969 156.652 423.243 152.056C424.143 150.957 424.818 152.156 425.943 157.252L427.405 163.846L419.419 170.64ZM322.123 161.448C321.785 162.547 320.661 164.546 319.423 165.844C317.399 168.143 317.399 168.043 319.198 159.949C320.886 151.756 320.998 151.656 321.898 155.553C322.348 157.651 322.46 160.349 322.123 161.448ZM1341.65 161.948C1344.02 167.343 1344.69 169.741 1343.79 170.64C1341.65 172.939 1340.98 172.039 1339.63 165.145C1338.95 161.448 1338.05 157.352 1337.72 155.953C1336.37 151.556 1338.17 154.254 1341.65 161.948ZM71.5146 157.152C71.1772 157.951 70.8398 157.651 70.8398 156.552C70.7273 155.453 71.0647 154.854 71.4022 155.253C71.7396 155.553 71.8521 156.452 71.5146 157.152ZM523.689 159.15C523.352 159.949 523.014 159.65 523.014 158.551C522.902 157.452 523.239 156.852 523.577 157.252C523.914 157.551 524.027 158.451 523.689 159.15ZM1195.09 172.539L1195.54 176.436L1193.85 171.939C1191.83 166.544 1191.83 166.244 1193.29 167.543C1193.96 168.143 1194.75 170.341 1195.09 172.539ZM566.77 179.133C566.77 183.829 564.97 183.03 563.62 177.834C562.833 175.037 562.27 172.039 562.27 171.14C562.383 168.342 566.657 176.136 566.77 179.133ZM285.004 187.426C281.292 201.714 281.18 201.914 281.855 192.922C282.192 187.426 283.092 183.829 284.217 182.63C285.117 181.731 286.016 181.032 286.241 181.232C286.466 181.332 285.904 184.129 285.004 187.426Z" fill="white" fill-opacity="0.07"/>
</svg>
