<svg width="51" height="51" viewBox="0 0 51 51" fill="none" xmlns="http://www.w3.org/2000/svg">
<path d="M30.6494 0.280697C29.144 1.37122 27.7501 2.70185 26.5753 4.17756C24.4645 6.81883 23.3694 9.45009 23.1105 12.4915C22.9552 14.3224 23.2379 16.1833 23.8433 17.3289C24.0464 17.7141 24.3929 18.1343 24.6238 18.2843C24.7831 18.3894 25.1336 18.5094 25.1615 18.4744C25.1734 18.4644 25.1615 18.3744 25.1416 18.2793C24.9225 17.3489 24.807 15.3529 24.8986 14.1724C25.042 12.3215 25.4602 10.6006 26.2368 8.6397C26.5514 7.84932 27.2722 6.27357 27.3758 6.15851C27.4036 6.1285 27.3877 6.18353 27.3439 6.27857C27.0094 7.00392 26.9058 7.24903 26.643 7.90935C25.9182 9.73022 25.5 11.291 25.273 13.0418C25.2212 13.422 25.2053 13.8822 25.2053 14.8077C25.2013 16.2133 25.2491 16.7286 25.4841 17.8641C25.8465 19.63 26.3284 20.9456 27.8138 24.1972C28.6462 26.023 29.3232 27.6338 29.5502 28.3241L29.6338 28.5793L29.3352 28.9995C25.9859 33.6317 24.5163 36.6531 24.0424 39.8697C23.9827 40.2599 23.9667 40.615 23.9667 41.4954C23.9667 42.586 23.9787 42.7611 24.126 43.6715C24.1499 43.8116 24.138 43.8316 24.0066 43.9116C23.7517 44.0667 23.684 43.9966 23.7318 43.6165C23.7596 43.3613 23.6959 43.1763 23.5924 43.2213C23.461 43.2713 23.3096 42.4409 23.226 41.2453C23.1583 40.2248 23.1384 36.8532 23.1862 33.9918C23.2539 29.8199 23.1623 27.6138 22.8118 25.2827C22.5808 23.7519 22.2065 22.1562 21.7325 20.7105C21.4578 19.8801 20.7489 18.0842 20.3904 17.3089L20.1356 16.7636L20.2471 16.5435C20.3785 16.2834 20.482 15.7531 20.482 15.3479C20.482 13.9222 19.7532 11.8963 18.4629 9.72522C17.3677 7.87934 16.4677 6.7638 14.0224 4.21758C13.3812 3.54726 12.5529 2.69685 12.1785 2.31667C11.8081 1.94149 11.2147 1.3312 10.8683 0.95602C10.5178 0.580841 10.2271 0.280697 10.2191 0.290699C10.1992 0.320713 10.3943 1.47127 10.5337 2.12658C10.9479 4.08252 11.5453 6.02345 12.3816 8.12946C13.4529 10.8207 14.5083 12.7517 16.0893 14.9077C17.0372 16.2083 17.9213 17.0287 18.6103 17.2588C18.8492 17.3389 19.3669 17.3589 19.3669 17.2888C19.3669 17.2338 18.9368 16.2634 18.5824 15.533C17.7222 13.7472 16.9774 12.3915 14.6317 8.32955C13.3414 6.10349 13.3414 6.09348 14.568 8.04942C17.0252 11.9763 17.7779 13.2319 18.7098 14.9827C21.2268 19.705 22.306 23.4068 22.5928 28.2641C22.6485 29.2596 22.6883 31.8008 22.6525 32.216L22.6246 32.5662L22.4972 32.116C22.1627 30.9504 21.7843 30.0049 21.2586 29.0145C20.6135 27.7939 19.9882 26.9085 19.0483 25.873C18.1164 24.8475 17.2841 24.1071 14.1857 21.5659C11.8958 19.69 10.2231 18.0092 9.0164 16.3834L8.61417 15.8382L8.68983 15.6731C8.90091 15.2179 8.96064 14.3524 8.8332 13.6521C8.65001 12.6466 8.22388 11.431 7.50703 9.88029C7.13267 9.07491 6.603 8.11945 5.75074 6.73379C5.3047 6.00344 4.80689 5.15303 4.6436 4.84288C4.2573 4.09753 3.87498 3.11705 3.69179 2.39171C3.61213 2.06655 3.53248 1.7564 3.52054 1.70638C3.49664 1.62634 3.4608 1.67136 3.31743 1.9565C2.87139 2.84692 2.54482 4.11753 2.44526 5.37313C2.27003 7.51917 2.70412 10.4206 3.50062 12.4315C4.37279 14.6226 5.66711 16.2884 6.79416 16.6635C7.19241 16.7986 7.92519 16.7086 7.91324 16.5285C7.90926 16.4885 7.75793 16.2083 7.57871 15.9082C6.63088 14.3374 5.69897 12.3165 4.9861 10.3005C4.69139 9.46009 4.14181 7.72426 4.16172 7.69925C4.17367 7.68925 4.26527 7.93436 4.37279 8.24451C6.36405 14.0273 8.94073 17.8891 13.2936 21.6109C13.5804 21.851 13.8233 22.0661 13.8392 22.0811C13.8551 22.0961 13.5246 22.1112 13.1025 22.1112C12.4931 22.1162 12.2382 22.1362 11.8519 22.2262C10.8523 22.4513 9.87662 22.8265 7.99688 23.6969C6.88177 24.2122 5.77862 24.6974 5.76667 24.6774C5.76269 24.6674 5.691 24.5073 5.60737 24.3172C5.19717 23.3818 4.50422 22.9015 3.62408 22.9466L3.2338 22.9666L2.60058 23.3768C1.73239 23.937 1.43769 24.0421 0.633219 24.0771L0 24.0971L0.023895 24.4573C0.0836327 25.4678 0.517726 26.5583 1.14696 27.2786C1.82001 28.054 2.67226 28.5242 3.47673 28.5743C4.7352 28.6493 5.77065 27.8889 5.98173 26.7334C6.0335 26.4582 6.03748 25.8029 5.98969 25.7679C5.96978 25.7529 5.7149 25.7879 5.42418 25.8479C4.99008 25.938 4.71927 25.958 3.95463 25.958C2.99485 25.963 2.7559 25.928 2.17047 25.7129C1.88373 25.6028 1.92355 25.5828 2.24215 25.6679C2.63642 25.7779 3.36124 25.8079 3.85507 25.7429C4.87459 25.6028 5.79853 25.2927 8.05661 24.3322C10.9718 23.0966 11.828 22.8515 13.1343 22.9015C13.8711 22.9265 14.3848 23.0366 15.1335 23.3317C15.492 23.4668 15.5995 23.5418 16.2048 24.0671C18.4589 26.023 19.6696 27.4437 20.6613 29.3096C21.3741 30.6502 21.9078 32.306 22.4375 34.8172L22.5649 35.4175L22.5569 37.7436C22.545 41.0652 22.6167 42.3008 22.8795 43.3413L23.0069 43.8616L22.8158 44.0817C22.6406 44.2768 22.6007 44.3018 22.4574 44.2868C22.31 44.2718 22.2861 44.2518 22.2184 44.0717C22.1547 43.8966 22.1507 43.8316 22.1905 43.4464C22.2543 42.8061 22.2582 42.8211 21.9954 42.4759C21.7963 42.2158 21.7564 42.1307 21.7564 41.9857C21.7564 41.7756 21.6569 41.6455 21.5016 41.6455C21.3861 41.6455 21.167 41.8806 21.0396 42.1358C20.9838 42.2458 20.9799 42.2258 20.9918 41.8606C21.0037 41.5405 20.9958 41.4454 20.94 41.3804C20.9042 41.3354 20.8524 41.2954 20.8285 41.2954C20.8046 41.2954 20.6652 41.4554 20.5219 41.6455C20.3785 41.8406 20.2272 41.9957 20.1873 41.9957C20.1236 41.9957 20.1156 41.9657 20.1395 41.7556C20.1634 41.5305 20.1515 41.4954 20.0161 41.2453C19.9325 41.1003 19.817 40.9352 19.7612 40.8802C19.6616 40.7901 19.6497 40.7901 19.5143 40.8701C19.3749 40.9502 19.136 41.2503 18.8452 41.7005L18.7019 41.9206L18.5346 41.7756C18.435 41.6855 18.3554 41.6455 18.3315 41.6755C18.3116 41.7005 18.2757 41.9206 18.2518 42.1708C18.2001 42.656 18.1244 42.9461 18.0487 42.9461C18.0248 42.9461 17.8536 42.7661 17.6744 42.551C17.308 42.1107 17.0451 41.9056 16.9575 41.9957C16.9296 42.0257 16.846 42.1708 16.7743 42.3208C16.7026 42.4709 16.619 42.596 16.5951 42.596C16.5433 42.596 16.4597 42.3609 16.3641 41.9206C16.2606 41.4604 16.2606 41.4604 16.2208 41.5405C16.2048 41.5805 16.1769 41.8156 16.161 42.0657C16.1292 42.5359 16.0893 42.746 16.0256 42.746C16.0097 42.746 15.9818 42.681 15.9699 42.606C15.9499 42.4859 15.9101 42.4459 15.711 42.3559C15.4123 42.2158 15.4004 42.2158 15.3167 42.3809C15.257 42.4959 15.245 42.621 15.253 43.1462C15.253 43.4914 15.2411 43.8116 15.2211 43.8566C15.1734 43.9716 14.9464 43.9766 14.7871 43.8716C14.7193 43.8266 14.6676 43.8066 14.6676 43.8266C14.6676 43.8416 14.7751 44.0016 14.9065 44.1867C15.1375 44.5019 15.2291 44.732 15.1933 44.9071C15.1614 45.0622 15.03 45.0622 14.7273 44.9171C14.6636 44.8921 14.6716 44.9171 14.7671 45.0421L14.8826 45.1972L14.7472 45.1672C14.568 45.1222 14.2932 44.9871 13.9906 44.797L13.7516 44.647V45.0972V45.5474L13.5843 45.6975C13.3255 45.9376 13.2538 45.8976 13.0308 45.3973C12.744 44.757 12.6484 44.5969 12.5529 44.5969C12.4692 44.5969 12.4653 44.6119 12.4931 44.9971C12.521 45.4323 12.533 45.4123 12.2701 45.3973C12.0909 45.3873 12.0789 45.4273 12.0909 46.0376C12.1028 46.6179 12.0789 46.6479 11.6449 46.6479C11.4099 46.6479 11.3103 46.6229 11.2028 46.5429C11.0037 46.3928 10.8444 46.1927 10.8444 46.0926C10.8444 46.0476 10.8165 45.9826 10.7846 45.9476C10.709 45.8675 10.709 45.7675 10.7846 45.4924C10.8205 45.3723 10.8404 45.2272 10.8284 45.1672C10.8165 45.1122 10.6811 44.9571 10.5298 44.827C10.0359 44.3968 9.84078 44.5219 9.98017 45.1772C10.0399 45.4774 10.0439 45.5124 9.98415 45.5874C9.92043 45.6624 9.92043 45.7775 9.98813 46.1477C10.02 46.3178 9.83679 46.5679 9.71334 46.5279C9.66953 46.5128 9.55802 46.4878 9.46642 46.4678C9.25535 46.4278 9.21951 46.5229 9.31907 46.858C9.38279 47.0881 9.38279 47.0981 9.3111 47.1682C9.2434 47.2282 9.23942 47.2532 9.28323 47.3733C9.38677 47.6534 9.14384 47.6534 8.77347 47.3733C8.2199 46.9581 8.18007 46.9581 7.85351 47.3232C7.48712 47.7334 7.46322 47.7184 7.45127 47.0331C7.43933 46.4978 7.43534 46.4728 7.35171 46.4578C7.20436 46.4328 7.07293 46.6429 7.04107 46.9531C7.0132 47.2332 6.93355 47.4483 6.85788 47.4483C6.83398 47.4483 6.78221 47.3983 6.7384 47.3332C6.66672 47.2232 6.66672 47.2332 6.66274 47.8885V48.5488L6.52335 48.6339C6.39193 48.7139 6.37998 48.7139 6.18483 48.5838C5.85827 48.3687 5.71092 48.4238 5.6472 48.7889C5.63525 48.874 5.59542 48.949 5.56755 48.949C5.53569 48.949 5.38435 48.814 5.22505 48.6489C5.05779 48.4688 4.90247 48.3487 4.84671 48.3487C4.65555 48.3487 4.50023 48.7539 4.27323 49.8394C4.14977 50.4147 4.14579 50.4747 4.1896 50.7299L4.23739 51H25.6752H47.1131L47.1648 50.7299C47.2126 50.4697 47.2087 50.4247 47.0693 49.7644C46.9179 49.0641 46.7746 48.5988 46.6591 48.4388C46.5436 48.2787 46.4161 48.3287 46.1214 48.6539C45.9661 48.819 45.8148 48.949 45.7789 48.939C45.7431 48.929 45.7033 48.849 45.6873 48.7639C45.6316 48.4138 45.4962 48.3687 45.1696 48.5788C44.9745 48.7089 44.9625 48.7089 44.8311 48.6339L44.6957 48.5488V47.8885C44.6917 47.2332 44.6917 47.2232 44.62 47.3332C44.5762 47.3983 44.5244 47.4483 44.5005 47.4483C44.4328 47.4483 44.3452 47.2382 44.3173 46.9981C44.3014 46.873 44.2616 46.7129 44.2337 46.6379C44.178 46.4978 44.0187 46.4078 43.943 46.4728C43.9151 46.4928 43.8992 46.723 43.8992 47.0531C43.8992 47.5634 43.8952 47.5984 43.8195 47.5984C43.7757 47.5984 43.6284 47.4733 43.497 47.3182C43.2739 47.0631 43.2381 47.0381 43.1067 47.0631C43.027 47.0731 42.8279 47.1882 42.6646 47.3132C42.2225 47.6484 41.9756 47.6784 42.0672 47.3783C42.111 47.2232 42.0911 47.1482 42.0035 47.1482C41.9358 47.1482 41.9318 47.1732 42.0314 46.853C42.1031 46.6129 42.1071 46.5729 42.0513 46.5078C41.9995 46.4428 41.9597 46.4378 41.7924 46.4878C41.5575 46.5529 41.4977 46.5379 41.4101 46.3628C41.3544 46.2577 41.3504 46.2027 41.3902 45.9926C41.43 45.7825 41.43 45.7275 41.3743 45.6224C41.3185 45.5124 41.3185 45.4724 41.3743 45.1622C41.446 44.747 41.4101 44.5469 41.2588 44.5469C41.1473 44.5469 40.5618 45.0071 40.53 45.1222C40.5141 45.1622 40.5379 45.3423 40.5738 45.5224C40.6415 45.8275 40.6415 45.8525 40.5778 45.9376C40.5419 45.9876 40.5141 46.0626 40.5141 46.1077C40.5141 46.1927 40.4025 46.3278 40.1755 46.5179C40.0362 46.6329 39.9764 46.6479 39.6976 46.6479C39.5224 46.6479 39.3591 46.6279 39.3352 46.6079C39.2954 46.5779 39.2397 46.3578 39.2357 46.2227C39.2317 46.1927 39.2436 46.0326 39.2635 45.8625C39.2994 45.4673 39.2556 45.3823 39.0246 45.4073L38.8613 45.4223L38.8733 45.0321C38.8852 44.712 38.8772 44.642 38.8215 44.6169C38.7219 44.5669 38.6263 44.717 38.3675 45.3023C38.1046 45.8976 38.0568 45.9326 37.786 45.7125L37.6068 45.5724V45.1072C37.6068 44.8571 37.5949 44.647 37.5829 44.647C37.571 44.647 37.4874 44.702 37.3958 44.772C37.2205 44.8971 36.7984 45.1072 36.5913 45.1672L36.4718 45.2072L36.5913 45.0421C36.6829 44.9171 36.6948 44.8921 36.6311 44.9221C36.4758 44.9921 36.2806 45.0371 36.2289 45.0121C36.0457 44.9271 36.1731 44.5069 36.5077 44.0967C36.7187 43.8416 36.7426 43.7615 36.5714 43.8716C36.4041 43.9816 36.1851 43.9716 36.1333 43.8516C36.1134 43.7965 36.0935 43.4814 36.0935 43.1512C36.0935 42.5409 36.0576 42.3158 35.9581 42.2658C35.9262 42.2508 35.7908 42.2858 35.6554 42.3509C35.4483 42.4459 35.4085 42.4809 35.3886 42.606C35.3766 42.681 35.3527 42.746 35.3328 42.746C35.2651 42.746 35.2253 42.561 35.1974 42.1458C35.1496 41.3554 35.1178 41.3304 34.9784 41.9707C34.8908 42.3709 34.8071 42.596 34.7434 42.596C34.7235 42.596 34.6359 42.4459 34.5443 42.2658C34.4009 41.9807 34.369 41.9457 34.2894 41.9757C34.142 42.0307 33.8991 42.2658 33.6164 42.616C33.469 42.7961 33.3256 42.9461 33.2898 42.9461C33.2141 42.9461 33.1584 42.721 33.1026 42.1708C33.0787 41.9206 33.0429 41.7005 33.023 41.6755C33.003 41.6455 32.9473 41.6655 32.8796 41.7256C32.6645 41.9257 32.6486 41.9156 32.3738 41.4954C32.0871 41.0652 31.9079 40.8701 31.7446 40.8201C31.6211 40.7801 31.5255 40.8852 31.3105 41.2903C31.2069 41.4904 31.195 41.5505 31.2149 41.7356C31.2348 41.9056 31.2268 41.9507 31.1711 41.9807C31.1233 42.0007 31.0317 41.9156 30.8405 41.6555C30.6932 41.4554 30.5458 41.2954 30.506 41.2954C30.3985 41.2954 30.3507 41.4804 30.3666 41.8806C30.3786 42.2258 30.3746 42.2458 30.3188 42.1358C30.1994 41.8906 29.9604 41.6455 29.8449 41.6455C29.7015 41.6455 29.602 41.7856 29.602 41.9957C29.602 42.1358 29.5622 42.2108 29.3829 42.4259C29.2635 42.566 29.1559 42.746 29.14 42.8261C29.1241 42.9011 29.136 43.1712 29.1639 43.4214C29.2037 43.7915 29.2037 43.9066 29.1599 44.0016C29.136 44.0667 29.1002 44.1567 29.0843 44.1967C29.0683 44.2418 28.9887 44.2768 28.9011 44.2868C28.7696 44.2968 28.7179 44.2718 28.5825 44.1267C28.4948 44.0317 28.3754 43.8666 28.3156 43.7565L28.2041 43.5614L28.4431 43.0812C29.0564 41.8606 29.6139 40.54 29.9843 39.4445L30.1914 38.8192L30.5658 38.454C31.2786 37.7537 32.5849 36.6981 33.7398 35.8928L34.1938 35.5726L34.6757 35.5276C34.9425 35.5076 35.966 35.4926 36.9497 35.5076C38.4511 35.5276 38.9649 35.5526 40.1158 35.6677C41.8601 35.8477 43.947 35.8728 44.7714 35.7277C45.0422 35.6777 45.2771 35.6576 45.2931 35.6777C45.309 35.6977 45.3448 35.7977 45.3727 35.8928C45.4723 36.2129 45.6833 36.5831 45.8865 36.7882C46.1971 37.0933 46.4719 37.2084 46.9777 37.2334C47.5511 37.2634 48.0131 37.1334 48.5707 36.7782C48.9291 36.5581 49.0287 36.463 49.399 35.9978C49.63 35.7077 49.9048 35.2975 50.0123 35.0924C50.5102 34.1269 50.8646 32.8263 50.9681 31.5707L51 31.2255L50.8646 31.2555C50.7889 31.2705 50.2632 31.3106 49.6937 31.3406C46.9697 31.4856 46.9777 31.4856 46.448 31.8008C45.6794 32.266 45.1776 33.2515 45.1736 34.312V34.5571L45.5479 34.5221C46.5675 34.4321 47.7702 34.0119 48.7101 33.4216C48.9132 33.2965 49.0764 33.2015 49.0764 33.2115C49.0764 33.2215 48.9649 33.3215 48.8295 33.4266C47.6507 34.357 46.3683 34.9073 44.8152 35.1524C44.2775 35.2374 42.4336 35.2374 41.6889 35.1524C41.3822 35.1174 40.5857 35.0223 39.9167 34.9423C38.248 34.7422 37.6586 34.6922 36.5674 34.6522L35.6275 34.6171L36.9258 33.7667C39.1481 32.311 40.4344 31.3856 41.5654 30.4251L42.119 29.9549L42.358 30.11C42.573 30.2501 42.6407 30.2651 43.0191 30.2801C43.3217 30.2951 43.5129 30.2751 43.7001 30.215C45.2692 29.7098 46.9538 27.7639 47.8379 25.4277C48.6065 23.4068 48.8256 21.1357 48.4552 19.0447C48.272 18.0192 48.0012 17.1388 47.2365 15.1078C47.0294 14.5575 46.8184 13.9773 46.7666 13.8172C46.7148 13.6621 46.6591 13.5471 46.6431 13.5671C46.5436 13.7071 46.229 15.1578 45.99 16.5585C45.7192 18.1543 45.4962 19.1647 45.2732 19.8351C45.0382 20.5354 44.178 22.3012 42.8359 24.8425C41.7486 26.9035 41.5216 27.5488 41.5575 28.4992C41.5654 28.7393 41.5933 28.9644 41.6132 28.9895C41.6849 29.0795 42.6965 28.1741 43.489 27.3137C45.0979 25.5778 46.2728 23.3117 46.7666 20.9856C46.8303 20.6955 46.8821 20.5054 46.8821 20.5604C46.8861 20.7105 46.7029 21.5959 46.5436 22.1812C45.8307 24.8125 44.4567 27.0485 42.3062 29.0845C40.9681 30.3501 39.5861 31.3506 36.1094 33.5817C33.3177 35.3725 32.2942 36.0879 31.0875 37.1033C30.7967 37.3485 30.5578 37.5335 30.5578 37.5185C30.5578 37.5035 30.6096 37.2284 30.6773 36.9032C31.2109 34.262 31.1193 31.7758 30.4025 29.2446L30.2432 28.6943L31.3025 27.2286C32.9393 24.9675 33.8473 23.6469 34.4009 22.7265L34.6 22.3963L34.9585 22.4213C35.3886 22.4563 35.6474 22.3763 36.0895 22.0811C37.6466 21.0356 39.0007 17.9692 39.3193 14.7826C39.4786 13.1519 39.387 11.2109 38.9967 8.02941C38.8255 6.62874 38.698 5.40815 38.6383 4.61277C38.6104 4.23759 38.5746 3.92744 38.5626 3.92744C38.5308 3.92744 38.1604 4.59276 37.8896 5.13802C36.894 7.12397 35.8983 10.2855 34.4766 15.9332C33.7318 18.8946 33.5606 19.8851 33.6602 20.7105C33.704 21.0957 33.8314 21.5409 33.919 21.6309C34.0027 21.716 34.9425 20.1602 35.4443 19.1097C36.3444 17.2238 36.9617 15.0628 37.3679 12.3815C37.5431 11.2109 37.559 11.1359 37.563 11.276C37.567 11.436 37.3918 12.8717 37.2643 13.7071C36.8382 16.4735 36.1492 18.6245 35.0023 20.7605C34.162 22.3213 33.0628 23.952 30.745 27.0785L30.0321 28.039L29.7254 27.2536C29.5542 26.8184 29.3232 26.2581 29.2077 26.003C28.9927 25.5228 28.9409 25.2827 28.7856 23.9771C28.6701 23.0316 28.7258 22.1862 28.9608 21.3358C29.2197 20.3753 29.4268 19.9201 30.518 17.8541C31.6649 15.6881 31.9915 14.9377 32.334 13.6571L32.5052 13.0068L32.8756 12.9718C33.1823 12.9418 33.2938 12.9067 33.5287 12.7567C34.2137 12.3365 34.6637 11.311 34.7275 10.0254C34.7792 8.99987 34.4766 7.8143 33.7836 6.37862C33.5447 5.88338 32.8039 4.43269 32.7601 4.37766C32.7203 4.33264 31.9875 5.34813 31.653 5.90339C31.0675 6.88386 30.5936 7.93937 30.3786 8.74475C30.1117 9.74023 30.1755 10.8007 30.5379 11.5061C30.7649 11.9463 31.3184 12.5166 31.6012 12.6066C31.6928 12.6366 31.7047 12.6116 31.8441 12.0713C32.099 11.0659 32.2504 10.1854 32.4296 8.6347C32.4933 8.07443 32.557 7.60421 32.565 7.5942C32.5849 7.56919 32.5809 7.66924 32.5052 9.20497C32.4296 10.8257 32.2504 12.1814 31.9875 13.1869C31.637 14.5075 31.195 15.503 30.0998 17.4289C29.2913 18.8596 28.9449 19.5399 28.6661 20.2603C28.2678 21.2908 28.0886 22.1412 28.0886 23.0216C28.0886 23.3117 28.0727 23.4818 28.0488 23.4618C27.9771 23.4068 27.1129 21.4508 26.7704 20.5604C26.4677 19.78 26.0177 18.3844 26.0177 18.2343C26.0177 18.2043 26.1133 18.0592 26.2328 17.9091C26.4797 17.594 26.7505 16.9537 26.9058 16.3084C26.9616 16.0883 27.1249 15.2529 27.2722 14.4575C27.8497 11.321 28.8373 7.27905 29.8409 3.95245C30.2233 2.69185 30.9919 0.230671 31.0397 0.115616C31.0636 0.0605888 31.0755 0.0105667 31.0675 0.00056076C31.0596 -0.00944519 30.8724 0.115616 30.6494 0.280697ZM37.5949 11.0409C37.5829 11.0759 37.575 11.0509 37.575 10.9808C37.575 10.9108 37.5829 10.8858 37.5949 10.9158C37.6028 10.9508 37.6028 11.0108 37.5949 11.0409ZM29.9763 29.7548C30.2551 30.8954 30.3865 31.7558 30.4303 32.7813C30.506 34.4321 30.3387 35.8978 29.8728 37.6936C29.7135 38.3139 29.7095 38.3239 29.4666 38.5941C28.9329 39.1893 27.8935 40.55 27.6067 41.0202C26.874 42.2258 26.2965 43.5814 25.9938 44.807C25.95 44.9871 25.8983 45.0972 25.8544 45.1122C25.8106 45.1272 25.7628 45.2272 25.727 45.3723L25.6712 45.6124L25.6195 45.3823C25.5558 45.0922 25.4721 44.9871 25.4442 45.1572C25.4323 45.2172 25.4164 45.3373 25.4084 45.4223C25.3965 45.5574 25.3805 45.5324 25.2451 45.1722C24.811 44.0267 24.584 42.736 24.584 41.4154C24.584 39.7146 24.8509 38.424 25.5996 36.5181C26.3284 34.6722 27.3558 32.8513 29.1082 30.3001C29.4945 29.7448 29.821 29.2996 29.8409 29.3146C29.8608 29.3296 29.9206 29.5247 29.9763 29.7548ZM28.8015 40.7501C28.4749 41.5155 28.1603 42.1658 27.6744 43.0862C27.2802 43.8316 27.2682 43.8466 27.1527 43.8166C27.089 43.8016 27.0253 43.7765 27.0213 43.7715C27.0134 43.7615 27.101 43.5264 27.2125 43.2513C27.4474 42.676 27.9333 41.7406 28.2678 41.2203C28.5665 40.7501 29.0086 40.1348 29.0285 40.1598C29.0365 40.1698 28.9329 40.4349 28.8015 40.7501ZM28.1125 44.1267C28.0807 44.2268 28.0169 44.2117 27.9891 44.0967C27.9771 44.0417 27.993 43.9416 28.0369 43.8616L28.1085 43.7265L28.1205 43.8916C28.1285 43.9816 28.1245 44.0867 28.1125 44.1267ZM26.8302 44.5969C26.7704 44.707 26.7147 44.797 26.7067 44.797C26.6868 44.797 26.7226 44.642 26.8023 44.4018C26.8541 44.2568 26.866 44.2418 26.8979 44.3118C26.9257 44.3718 26.9098 44.4469 26.8302 44.5969ZM24.3968 44.747C24.4168 44.8521 24.369 44.8721 24.2455 44.817C24.1858 44.787 24.1898 44.777 24.2495 44.692C24.3252 44.5869 24.365 44.6019 24.3968 44.747Z" fill="#284703"/>
</svg>
