<svg width="32" height="29" viewBox="0 0 32 29" fill="none" xmlns="http://www.w3.org/2000/svg">
<path d="M14.4 29V26.5833H28V14.3389C28 12.7815 27.6667 11.2845 27 9.84792C26.3333 8.41134 25.44 7.14259 24.32 6.04167C23.2 4.94074 21.92 4.06134 20.48 3.40347C19.04 2.7456 17.5467 2.41667 16 2.41667C14.4533 2.41667 12.96 2.7456 11.52 3.40347C10.08 4.06134 8.8 4.94074 7.68 6.04167C6.56 7.14259 5.66667 8.41134 5 9.84792C4.33333 11.2845 4 12.7815 4 14.3389V24.1667H3.2C2.32 24.1667 1.56667 23.8512 0.94 23.2201C0.313333 22.5891 0 21.8306 0 20.9444V17.7222C0 17.1046 0.146667 16.5609 0.44 16.091C0.733333 15.6211 1.12 15.2384 1.6 14.9431L1.72 12.8083C1.96 10.8481 2.51333 9.07593 3.38 7.49167C4.24667 5.90741 5.32667 4.56482 6.62 3.46389C7.91333 2.36296 9.36667 1.51042 10.98 0.90625C12.5933 0.302083 14.2667 0 16 0C17.76 0 19.4467 0.302083 21.06 0.90625C22.6733 1.51042 24.12 2.36968 25.4 3.48403C26.68 4.59838 27.7533 5.94097 28.62 7.51181C29.4867 9.08264 30.04 10.8347 30.28 12.7681L30.4 14.8625C30.88 15.1042 31.2667 15.46 31.56 15.9299C31.8533 16.3998 32 16.9167 32 17.4806V21.1861C32 21.7769 31.8533 22.3005 31.56 22.7569C31.2667 23.2134 30.88 23.5625 30.4 23.8042V26.5833C30.4 27.2479 30.165 27.8168 29.695 28.2901C29.225 28.7634 28.66 29 28 29H14.4ZM11.2 17.3194C10.88 17.3194 10.6 17.1986 10.36 16.9569C10.12 16.7153 10 16.4266 10 16.091C10 15.7553 10.12 15.4734 10.36 15.2451C10.6 15.0169 10.8867 14.9028 11.22 14.9028C11.5533 14.9028 11.8333 15.0186 12.06 15.2502C12.2867 15.4818 12.4 15.7688 12.4 16.1111C12.4 16.4333 12.285 16.7153 12.055 16.9569C11.825 17.1986 11.54 17.3194 11.2 17.3194ZM20.8 17.3194C20.48 17.3194 20.2 17.1986 19.96 16.9569C19.72 16.7153 19.6 16.4266 19.6 16.091C19.6 15.7553 19.72 15.4734 19.96 15.2451C20.2 15.0169 20.4867 14.9028 20.82 14.9028C21.1533 14.9028 21.4333 15.0186 21.66 15.2502C21.8867 15.4818 22 15.7688 22 16.1111C22 16.4333 21.885 16.7153 21.655 16.9569C21.425 17.1986 21.14 17.3194 20.8 17.3194ZM6.44 15.225C6.33333 13.6407 6.55333 12.2042 7.1 10.9153C7.64667 9.62639 8.38 8.53218 9.3 7.63264C10.22 6.7331 11.28 6.04167 12.48 5.55833C13.68 5.075 14.88 4.83333 16.08 4.83333C18.5067 4.83333 20.5467 5.60532 22.2 7.14931C23.8533 8.69329 24.8667 10.6199 25.24 12.9292C22.7333 12.9023 20.5267 12.2243 18.62 10.8951C16.7133 9.56597 15.24 7.84074 14.2 5.71944C13.7733 7.89444 12.8733 9.82106 11.5 11.4993C10.1267 13.1775 8.44 14.4194 6.44 15.225Z" fill="#3D3D3D"/>
</svg>
