<svg width="43" height="39" viewBox="0 0 43 39" fill="none" xmlns="http://www.w3.org/2000/svg">
<path d="M21.4734 30.8156C24.0411 30.8156 26.1927 29.9479 27.9281 28.2125C29.6635 26.4771 30.5312 24.3255 30.5312 21.7578C30.5312 19.1901 29.6635 17.0474 27.9281 15.3297C26.1927 13.612 24.0411 12.7531 21.4734 12.7531C18.9057 12.7531 16.763 13.612 15.0453 15.3297C13.3276 17.0474 12.4688 19.1901 12.4688 21.7578C12.4688 24.3255 13.3276 26.4771 15.0453 28.2125C16.763 29.9479 18.9057 30.8156 21.4734 30.8156ZM21.4734 27.6281C19.7911 27.6281 18.401 27.0703 17.3031 25.9547C16.2052 24.8391 15.6562 23.4401 15.6562 21.7578C15.6562 20.0755 16.2052 18.6854 17.3031 17.5875C18.401 16.4896 19.7911 15.9406 21.4734 15.9406C23.1557 15.9406 24.5547 16.4896 25.6703 17.5875C26.7859 18.6854 27.3438 20.0755 27.3438 21.7578C27.3438 23.4401 26.7859 24.8391 25.6703 25.9547C24.5547 27.0703 23.1557 27.6281 21.4734 27.6281ZM3.4375 38.625C2.5875 38.625 1.84375 38.3063 1.20625 37.6688C0.56875 37.0312 0.25 36.2875 0.25 35.4375V8.18438C0.25 7.36979 0.56875 6.6349 1.20625 5.97969C1.84375 5.32448 2.5875 4.99688 3.4375 4.99688H11.2469L15.125 0.375H27.875L31.7531 4.99688H39.5625C40.3771 4.99688 41.112 5.32448 41.7672 5.97969C42.4224 6.6349 42.75 7.36979 42.75 8.18438V35.4375C42.75 36.2875 42.4224 37.0312 41.7672 37.6688C41.112 38.3063 40.3771 38.625 39.5625 38.625H3.4375ZM3.4375 35.4375H39.5625V8.18438H30.2656L26.3875 3.5625H16.6125L12.7344 8.18438H3.4375V35.4375Z" fill="#284703"/>
</svg>
