<svg width="23" height="43" viewBox="0 0 23 43" fill="none" xmlns="http://www.w3.org/2000/svg">
<path d="M11.5 42.75C8.56042 42.75 6.05469 41.7141 3.98281 39.6422C1.91094 37.5703 0.875 35.0646 0.875 32.125C0.875 30.3188 1.28229 28.6188 2.09688 27.025C2.91146 25.4313 4.11563 24.2448 5.70937 23.4656V6.04063C5.70937 4.43211 6.27236 3.06488 7.39832 1.93895C8.52426 0.812983 9.89148 0.25 11.5 0.25C13.1085 0.25 14.4757 0.812983 15.6017 1.93895C16.7276 3.06488 17.2906 4.43211 17.2906 6.04063V23.4656C18.8844 24.2448 20.0885 25.4313 20.9031 27.025C21.7177 28.6188 22.125 30.3188 22.125 32.125C22.125 35.0646 21.0891 37.5703 19.0172 39.6422C16.9453 41.7141 14.4396 42.75 11.5 42.75ZM8.89688 19.6406H14.1031V16.825H11.5V14.7531H14.1031V10.1313H11.5V8.08594H14.1031V6.04063C14.1031 5.30307 13.853 4.68484 13.3528 4.18593C12.8527 3.68698 12.2329 3.4375 11.4935 3.4375C10.7541 3.4375 10.1365 3.68698 9.64062 4.18593C9.14479 4.68484 8.89688 5.30307 8.89688 6.04063V19.6406Z" fill="#284703"/>
</svg>
